<?xml version="1.0" encoding="UTF-8" standalone="no"?>
<svg
   xmlns:dc="http://purl.org/dc/elements/1.1/"
   xmlns:cc="http://creativecommons.org/ns#"
   xmlns:rdf="http://www.w3.org/1999/02/22-rdf-syntax-ns#"
   xmlns:svg="http://www.w3.org/2000/svg"
   xmlns="http://www.w3.org/2000/svg"
   xmlns:xlink="http://www.w3.org/1999/xlink"
   id="svg8"
   version="1.1"
   viewBox="0 0 210 380">
  <g>
    <path
       id="path21"
       d="m 13.65166,291.20255 c -1.628367,-0.80581 -3.54309,-2.25299 -4.2549399,-3.21598 -1.6360277,-2.2132 -1.6724242,-7.30335 -0.067712,-9.46976 1.0345939,-1.39674 35.9195399,-28.93169 77.3646839,-61.06452 l 10.516394,-8.15347 -2.02187,-1.6989 C 94.076187,206.66553 75.260225,191.45105 53.374967,173.78998 31.489708,156.12891 12.334233,140.46542 10.807244,138.98222 c -5.7287187,-5.56441 -2.5604466,-13.47383 6.12237,-15.28416 2.40246,-0.50091 33.951015,-0.77691 89.030526,-0.77887 79.23003,-0.003 85.5562,0.0914 88.77127,1.32205 7.00608,2.68181 7.60281,4.07448 7.99196,18.65183 0.209,7.82919 -0.0874,14.26409 -0.74109,16.0863 -2.28139,6.36014 -10.88116,9.46645 -18.28449,6.60453 -5.56654,-2.15187 -7.06365,-5.29173 -7.06549,-14.81824 l -0.002,-8.14715 H 113.31409 49.997437 l 5.11596,3.97884 c 2.813776,2.18837 20.153204,16.1637 38.53206,31.05631 35.855313,29.054 36.344273,29.56334 33.437213,34.83185 -0.7256,1.315 -7.70582,7.36871 -15.51161,13.45268 -7.80579,6.08398 -24.41434,19.02269 -36.907891,28.75271 -12.49355,9.73001 -22.866983,17.99445 -23.052073,18.36541 -0.194346,0.3895 26.144583,0.67446 62.341564,0.67446 h 62.67807 l 0.002,-5.49459 c 0.002,-6.77355 2.01878,-10.11507 7.33683,-12.15566 4.77637,-1.83273 9.71263,-1.27195 13.96103,1.58605 3.93021,2.64395 4.89571,5.97552 4.92557,16.99621 0.0283,10.44256 -1.4262,14.12741 -6.50682,16.48455 -3.24323,1.50469 -4.77489,1.53022 -91.5175,1.52531 -85.502407,-0.005 -88.31025,-0.0501 -91.179746,-1.47009 z"/>
  </g>
</svg>
