<?xml version="1.0" encoding="UTF-8" standalone="no"?>
<svg
   xmlns:dc="http://purl.org/dc/elements/1.1/"
   xmlns:cc="http://creativecommons.org/ns#"
   xmlns:rdf="http://www.w3.org/1999/02/22-rdf-syntax-ns#"
   xmlns:svg="http://www.w3.org/2000/svg"
   xmlns="http://www.w3.org/2000/svg"
   id="svg60"
   version="1.1"
   viewBox="0 0 210 297"
   height="297mm"
   width="210mm">
  <defs
     id="defs54" />
  <metadata
     id="metadata57">
    <rdf:RDF>
      <cc:Work
         rdf:about="">
        <dc:format>image/svg+xml</dc:format>
        <dc:type
           rdf:resource="http://purl.org/dc/dcmitype/StillImage" />
        <dc:title></dc:title>
      </cc:Work>
    </rdf:RDF>
  </metadata>
  <g
     id="layer1">
    <path
       d="m 57.871207,295.32615 c -4.950915,-0.6659 -9.858071,-2.04078 -14.081664,-3.94546 -12.830557,-5.78607 -22.115611,-18.52637 -23.839885,-32.7114 L 19.60547,255.83798 H 14.124762 8.6439909 L 7.7956798,254.16821 C 7.0456765,252.69195 6.9474,252.17885 6.9474,249.73973 c 0,-2.51672 0.078961,-2.89883 0.9013189,-4.35588 l 0.9013188,-1.59715 2.7790163,-0.0834 2.779017,-0.0834 v -33.67467 -33.67459 l -2.178158,-0.002 c -6.1888404,-0.005 -9.5387982,-1.58612 -9.5387982,-4.49879 0,-1.58736 0.7364446,-2.48444 2.7679746,-3.37175 L 6.9474,167.70397 h 98.99347 c 80.05311,0 99.23858,0.0718 100.27429,0.37521 1.7474,0.51191 3.30963,1.89171 3.55123,3.13652 0.6047,3.11539 -3.03518,5.03728 -9.56387,5.0498 l -2.6288,0.005 v 30.15519 c 0,16.58534 -0.0884,31.74379 -0.1963,33.68545 l -0.19631,3.53031 h 2.25288 c 2.55119,0 2.83649,0.17485 3.80708,2.33373 1.24368,2.76631 1.00201,6.40384 -0.59101,8.89521 l -0.61864,0.96751 h -4.87859 -4.87859 l -0.35941,2.98845 c -1.67067,13.89195 -11.00044,26.7501 -23.52635,32.42372 -11.55711,5.2348 -23.80758,5.66656 -34.48879,1.21558 -11.45497,-4.77341 -19.27295,-12.8159 -22.99837,-23.65878 -1.72984,-5.03474 -2.05578,-7.03161 -2.16435,-13.25936 l -0.0988,-5.66264 -2.68895,-0.0834 -2.68892,-0.0834 0.022,4.72965 c 0.034,7.12333 -1.33629,13.26244 -4.264423,19.10403 -5.434149,10.84108 -16.586047,18.99176 -29.211715,21.35006 -3.00039,0.56044 -9.266555,0.78315 -11.935404,0.42416 z m 7.032338,-10.11491 c 0.08683,-0.13561 -0.97943,-4.51866 -2.369363,-9.73988 -2.958645,-11.11412 -2.85134,-10.75973 -3.162402,-10.44266 -0.794077,0.8093 -10.529333,17.62543 -10.319033,17.82457 0.455331,0.43121 4.790099,1.71793 7.212721,2.14099 2.616817,0.457 8.391851,0.60202 8.638077,0.21708 z m 90.475225,-0.19969 c 2.66331,-0.44892 6.96533,-1.69885 7.45973,-2.1674 0.15289,-0.1448 -0.0522,-0.78369 -0.48276,-1.50503 -8.92995,-14.95794 -9.96387,-16.58432 -10.19858,-16.04333 -0.52803,1.21695 -5.33156,19.67672 -5.18138,19.9116 0.26142,0.40871 5.54721,0.28552 8.40299,-0.19596 z m -79.619038,-2.78459 c 1.480219,-0.81877 3.232083,-1.88572 3.893058,-2.37106 1.690803,-1.24151 5.860633,-5.21401 5.847924,-5.57121 -0.0094,-0.29524 -17.988815,-11.01917 -18.173697,-10.84047 -0.05316,0.0514 1.109858,4.57978 2.584446,10.06315 1.474619,5.48337 2.681086,10.02342 2.681086,10.08901 0,0.30202 0.666072,0.0149 3.167183,-1.36942 z m 63.534688,1.41606 c 0.003,-0.04 1.21191,-4.57752 2.68678,-10.08352 1.47484,-5.50599 2.63554,-10.0554 2.57926,-10.10979 -0.16862,-0.16293 -18.16791,10.51687 -18.1794,10.78652 -0.0252,0.57281 4.51516,4.69547 6.74308,6.12388 4.34933,2.78852 6.13747,3.73991 6.17028,3.28291 z M 47.621163,269.49257 c 2.973179,-4.70824 5.374787,-8.59031 5.336974,-8.6269 -0.07047,-0.0681 -20.160021,4.46082 -20.862994,4.7033 -0.274633,0.0949 0.163584,1.18248 1.488681,3.6956 1.697472,3.21906 2.176271,3.85438 4.982153,6.61046 2.465281,2.42153 3.160326,2.95946 3.376855,2.61354 0.150058,-0.23968 2.705184,-4.28778 5.678331,-8.996 z m 125.833497,6.27949 c 2.64116,-2.6505 3.21704,-3.42536 4.85874,-6.53784 1.31846,-2.49964 1.74878,-3.57117 1.47324,-3.66868 -0.7205,-0.25484 -20.79001,-4.7704 -20.86787,-4.69517 -0.12584,0.1217 11.14831,17.90553 11.35232,17.90712 0.10287,6.7e-4 1.53558,-1.35163 3.18357,-3.00543 z m -83.152113,-9.1599 c 0.914185,-1.73198 1.797227,-5.10441 2.136822,-8.16066 0.365862,-3.29277 0.107273,-6.96942 -0.490534,-6.96942 -0.844253,0 -21.488326,5.00546 -21.319017,5.16908 0.139047,0.13437 18.724442,10.95517 19.006342,11.06581 0.03807,0.0149 0.337865,-0.48228 0.666387,-1.10481 z m 41.689783,-4.5697 c 5.18075,-2.97615 9.37156,-5.45754 9.31292,-5.51419 -0.16421,-0.15871 -20.84022,-5.04619 -21.34705,-5.04619 -1.06311,0 -0.88335,7.04778 0.29257,11.4705 0.599,2.25281 1.6003,4.50107 2.0046,4.50107 0.1746,0 4.55624,-2.43503 9.73696,-5.41119 z m -69.471109,-1.59171 c 2.439579,-0.65467 4.38422,-3.59086 3.92955,-5.93333 -0.610862,-3.14731 -4.319951,-5.20043 -7.307538,-4.045 -4.758136,1.84017 -4.676344,8.2234 0.126464,9.87864 1.427337,0.49189 1.75265,0.50187 3.251429,0.0996 z m 89.830199,0 c 3.41139,-0.91545 5.01182,-5.05774 3.0443,-7.87973 -2.02373,-2.90252 -5.80023,-3.27835 -8.334,-0.82935 -2.87861,2.7824 -1.81333,7.28199 2.03827,8.60939 1.4273,0.49189 1.75262,0.50187 3.25143,0.0996 z M 40.439019,255.97007 c 5.201231,-1.20992 9.518476,-2.25947 9.593913,-2.33237 0.0755,-0.0728 0.0094,-0.24365 -0.143451,-0.3792 -0.390337,-0.34337 -17.541852,-10.48816 -17.732019,-10.48816 -0.256387,0 -1.075441,2.05277 -1.679917,4.21066 -0.636155,2.27094 -1.044487,8.02632 -0.718545,10.12726 0.171134,1.10371 0.310496,1.33989 0.71779,1.21573 0.278093,-0.0847 4.760842,-1.14405 9.962072,-2.35392 z m 141.623111,1.82805 c 0.33739,-1.21675 0.19189,-6.83347 -0.2328,-8.97777 -0.44004,-2.22305 -1.49314,-5.40384 -1.92844,-5.82457 -0.24978,-0.24116 -18.07913,10.11832 -18.07913,10.50468 0,0.11002 2.67011,0.82532 5.93362,1.58944 3.26348,0.7641 7.69114,1.82115 9.83926,2.34901 2.14811,0.52785 3.99127,0.97161 4.09596,0.98616 0.10476,0.0149 0.2718,-0.26759 0.37143,-0.62695 z M 79.824491,246.5279 c 5.681351,-1.28736 10.397805,-2.40645 10.480981,-2.48684 0.08337,-0.0805 -0.707628,-1.78633 -1.757431,-3.79088 -1.688821,-3.22472 -2.226825,-3.95864 -4.669518,-6.37008 -1.518379,-1.499 -2.90935,-2.72546 -3.090991,-2.72546 -0.181516,0 -2.662903,3.6916 -5.513992,8.20358 -2.851025,4.51196 -5.379726,8.4976 -5.619314,8.85696 -0.239714,0.35937 -0.373444,0.65338 -0.297598,0.65338 0.07582,0 4.78645,-1.0533 10.467769,-2.34066 z m 62.336619,1.54209 c -1.62867,-2.90103 -10.61581,-16.74844 -10.93713,-16.85196 -0.21738,-0.07 -1.65214,1.1135 -3.18835,2.6301 -2.47868,2.44696 -3.00807,3.16777 -4.70189,6.40205 -1.04981,2.00455 -1.83938,3.71167 -1.7546,3.79361 0.15383,0.14852 19.9193,4.73906 20.64706,4.79519 0.29288,0.0224 0.27746,-0.1587 -0.0651,-0.76899 z m -88.482635,-6.24345 c -0.790428,-2.91481 -2.00866,-7.40322 -2.707134,-9.97426 -0.698537,-2.57102 -1.389115,-4.85786 -1.534611,-5.08183 -0.371934,-0.57246 -5.80945,2.12425 -8.333338,4.13282 -1.674601,1.33271 -5.181317,5.05399 -5.153665,5.46896 0.0094,0.16144 18.617829,10.6883 18.966421,10.73007 0.109791,0.0124 -0.447246,-2.36095 -1.237673,-5.27576 z m 112.582145,0.0499 c 5.0771,-2.88734 9.3314,-5.34302 9.45402,-5.4571 0.33717,-0.31366 -2.78962,-3.80778 -4.93625,-5.51617 -2.24426,-1.78603 -7.89604,-4.67822 -8.30012,-4.2474 -0.14849,0.15846 -0.89745,2.64029 -1.6641,5.51513 -0.76661,2.8749 -1.98997,7.41589 -2.71861,10.09112 -0.72861,2.67526 -1.26662,4.86407 -1.19546,4.86407 0.0711,0 4.28337,-2.36234 9.36052,-5.24965 z M 73.564995,226.77258 c -0.37552,-0.32687 -3.703552,-1.33706 -6.23005,-1.89109 -2.409851,-0.52842 -9.476951,-0.77778 -9.921271,-0.35007 -0.114824,0.11052 0.342898,2.39743 1.017306,5.08186 0.674409,2.68442 1.774325,7.10227 2.444298,9.81744 0.669941,2.71517 1.286088,5.12083 1.369233,5.34595 0.08431,0.2285 2.667968,-3.61672 5.846508,-8.70109 3.132454,-5.01067 5.595752,-9.19702 5.473976,-9.303 z m 78.639545,7.92017 c 1.35715,-5.48073 2.38864,-10.04122 2.29226,-10.13438 -0.3787,-0.36605 -4.71863,-0.42441 -7.26385,-0.0976 -2.89308,0.37136 -7.94636,1.62566 -8.68989,2.15697 -0.38851,0.2776 0.38226,1.67776 5.17031,9.39303 3.09474,4.98676 5.71608,8.97238 5.82521,8.85696 0.10916,-0.11549 1.3088,-4.69413 2.66596,-10.17489 z"
       id="path39" />
  </g>
</svg>
