<?xml version="1.0" encoding="UTF-8" standalone="no"?>
<svg
   xmlns:dc="http://purl.org/dc/elements/1.1/"
   xmlns:cc="http://creativecommons.org/ns#"
   xmlns:rdf="http://www.w3.org/1999/02/22-rdf-syntax-ns#"
   xmlns:svg="http://www.w3.org/2000/svg"
   xmlns="http://www.w3.org/2000/svg"
   id="svg106"
   version="1.1"
   viewBox="0 40 210 297">
  <defs
     id="defs100" />
  <metadata
     id="metadata103">
    <rdf:RDF>
      <cc:Work
         rdf:about="">
        <dc:format>image/svg+xml</dc:format>
        <dc:type
           rdf:resource="http://purl.org/dc/dcmitype/StillImage" />
        <dc:title></dc:title>
      </cc:Work>
    </rdf:RDF>
  </metadata>
  <g
     id="layer1">
    <path
       d="m 57.288992,296.06566 c -8.154739,-1.23093 -15.00308,-3.88075 -20.730494,-8.02122 -3.470189,-2.50866 -5.30788,-4.28909 -8.065901,-7.81467 -4.714546,-6.02661 -7.911842,-13.77083 -8.627644,-20.89719 l -0.208858,-2.07923 H 14.307416 8.9587428 l -0.585796,-0.78868 c -1.5882193,-2.13828 -2.0266099,-6.05865 -0.9733864,-8.7046 0.9564802,-2.40289 1.2059487,-2.55202 4.2688096,-2.55202 h 2.657409 v -47.4642 -47.4642 h -2.198132 c -4.3849356,0 -7.9442235,-1.12845 -9.0145388,-2.85805 -1.1452198,-1.85063 -0.3183769,-4.65585 1.6603552,-5.63307 2.6451173,-1.30634 -1.6717844,-1.25281 101.3493166,-1.25642 106.98396,-0.005 99.62595,-0.12559 101.98806,1.68945 1.97901,1.52071 2.28877,3.96707 0.72668,5.73916 -1.21087,1.37366 -3.62162,2.07671 -7.71196,2.249 l -3.53019,0.14864 -0.005,29.42862 c -0.006,31.66733 -0.20927,60.35993 -0.45042,63.4852 l -0.1494,1.93584 h 2.55081 2.55078 l 0.76932,1.44919 c 1.6167,3.04545 1.58663,6.26881 -0.0861,9.23385 l -0.76856,1.36226 h -4.88567 -4.88564 l -0.20234,1.93584 c -1.07991,10.33216 -6.62399,20.69368 -14.56714,27.22507 -7.5021,6.16871 -16.38039,9.42111 -26.63412,9.75693 -7.72034,0.25282 -12.97227,-0.84727 -19.71491,-4.1296 -12.16751,-5.92312 -19.73291,-15.88811 -22.05394,-29.04898 -0.49141,-2.78653 -0.6486,-9.73415 -0.25856,-11.42929 l 0.20851,-0.90621 -2.95316,1.2e-4 -2.95319,1.5e-4 v 5.80739 c 0,4.47092 -0.12121,6.33546 -0.52667,8.1018 -1.98604,8.65181 -5.636123,15.10493 -11.671781,20.63491 -5.904788,5.41008 -13.625465,9.21033 -21.559351,10.61196 -2.316022,0.40914 -9.960841,0.56902 -12.059597,0.25223 z m 7.698571,-9.92966 c 0.06119,-0.0584 -0.908345,-3.90296 -2.154511,-8.54347 -2.794548,-10.40643 -3.102201,-11.44984 -3.374248,-11.4438 -0.119324,0.002 -0.995593,1.32549 -1.947276,2.93963 -0.951685,1.61417 -3.283865,5.51278 -5.182622,8.66366 -1.898762,3.15087 -3.452288,5.81387 -3.452288,5.91775 0,0.55006 6.28964,2.23718 9.914584,2.65944 1.138019,0.1327 6.014357,-0.0196 6.196361,-0.19329 z m 90.971017,-0.22174 c 1.71735,-0.30607 6.10964,-1.59053 6.7689,-1.97948 0.34593,-0.20408 -0.24447,-1.37582 -2.99265,-5.93956 -6.4126,-10.64904 -7.26766,-11.96146 -7.51543,-11.53561 -0.20924,0.35964 -5.39871,19.15912 -5.39871,19.55747 0,0.50942 6.08696,0.44091 9.13789,-0.10277 z m -80.205439,-2.70629 c 3.764128,-2.11468 6.122602,-3.84254 8.118199,-5.94758 0.912557,-0.96259 1.659195,-1.82909 1.659195,-1.92561 0,-0.19452 -16.973045,-10.19034 -17.846806,-10.51041 -0.441235,-0.16165 -0.514374,-0.094 -0.371228,0.34399 0.237485,0.72644 5.29903,19.35413 5.29903,19.50175 0,0.2587 0.457622,0.0456 3.14161,-1.46214 z m 64.116649,-0.78865 c 0.34867,-1.30133 1.5723,-5.82857 2.71924,-10.06053 1.70239,-6.28161 1.99274,-7.6606 1.58117,-7.51009 -0.98281,0.35937 -17.77956,10.28077 -17.77956,10.50187 0,0.4099 3.26758,3.60164 4.99509,4.87913 1.57308,1.16333 7.23176,4.5199 7.66169,4.54475 0.10366,0.005 0.47371,-1.05383 0.82237,-2.35513 z M 47.479623,270.87477 c 3.028411,-4.73144 5.413533,-8.63908 5.30027,-8.68362 -0.207316,-0.0814 -20.797219,4.49719 -20.971912,4.66364 -0.22421,0.21365 3.002016,5.89825 4.235306,7.46263 1.613252,2.04632 5.195892,5.39367 5.626257,5.25672 0.167143,-0.0532 2.781669,-3.96788 5.810079,-8.69937 z m 125.019307,6.99339 c 2.67663,-2.39014 4.47412,-4.73904 6.20986,-8.11502 0.8041,-1.56393 1.42373,-2.88005 1.37699,-2.92469 -0.17174,-0.16386 -20.75687,-4.71224 -20.98016,-4.63556 -0.12697,0.0437 1.21913,2.33772 2.99138,5.0981 1.77224,2.76037 4.27532,6.66436 5.56241,8.67548 1.28706,2.01114 2.46029,3.65661 2.60717,3.65661 0.14686,0 1.15145,-0.78971 2.23235,-1.75492 z M 90.636475,267.08575 c 1.34787,-3.43879 1.799908,-6.0359 1.802123,-10.35372 0.0017,-3.77258 -0.04061,-4.09489 -0.523671,-3.9679 -0.289173,0.076 -5.122534,1.20336 -10.740801,2.50523 -5.618263,1.30184 -10.309746,2.44218 -10.425519,2.53409 -0.222732,0.17686 18.286058,10.85203 18.891419,10.89586 0.194669,0.0147 0.643086,-0.71197 0.996449,-1.61356 z m 41.007635,-3.62941 c 5.11064,-2.89773 9.3299,-5.38206 9.37613,-5.52075 0.0462,-0.13883 -4.54473,-1.32824 -10.2021,-2.64342 -5.65735,-1.31521 -10.51135,-2.44972 -10.78666,-2.52112 -1.19019,-0.30877 -0.98292,7.38362 0.31397,11.65203 0.70129,2.30811 1.53793,4.30189 1.80517,4.30189 0.11077,0 4.38282,-2.37091 9.49349,-5.26863 z M 63.754587,261.1367 c 1.490382,-0.83373 2.102201,-1.64574 2.56663,-3.40634 0.7927,-3.0051 -1.95537,-6.21296 -5.322417,-6.21296 -4.217371,0 -6.850002,4.63548 -4.531756,7.97945 1.605629,2.31604 4.795645,3.03387 7.287543,1.63985 z m 90.014223,-0.11651 c 4.50576,-2.72768 2.39037,-9.50284 -2.96708,-9.50284 -1.61963,0 -3.59557,1.03681 -4.52162,2.3726 -1.07381,1.5489 -1.12014,3.87723 -0.10825,5.44011 1.61875,2.50024 5.01179,3.25509 7.59695,1.69013 z M 40.378983,257.30508 c 5.323505,-1.22718 9.741998,-2.29131 9.818872,-2.36466 0.147607,-0.14104 -17.493792,-10.54492 -17.976795,-10.60182 -0.431967,-0.051 -1.372831,2.44935 -1.99992,5.31459 -0.355313,1.62344 -0.566379,3.76951 -0.568862,5.78409 -0.0041,3.33877 0.128889,4.11405 0.704193,4.10466 0.188882,-0.002 4.699006,-1.00968 10.022512,-2.23686 z m 141.704487,1.59717 c 0.2949,-1.05038 0.21452,-6.28287 -0.1247,-8.12091 -0.17274,-0.93597 -0.66526,-2.77669 -1.09448,-4.09053 -0.6354,-1.94501 -0.87753,-2.3645 -1.30346,-2.25817 -0.75745,0.18912 -18.01077,10.34236 -17.84445,10.50111 0.17743,0.1695 19.03534,4.56852 19.69523,4.5945 0.26989,0.01 0.57225,-0.27109 0.67187,-0.626 z M 81.174126,246.48274 c 4.626807,-1.21249 8.469102,-2.25384 8.538438,-2.31408 0.202157,-0.17563 -1.22713,-2.94518 -2.4917,-4.82794 -1.357868,-2.02166 -3.009377,-3.82066 -5.090078,-5.54462 l -1.485323,-1.23066 -0.682533,0.95881 c -0.976126,1.37124 -9.800258,15.191 -9.971188,15.61621 -0.109195,0.27163 0.199325,0.2601 1.313646,-0.0491 0.801002,-0.22223 5.241935,-1.39613 9.868738,-2.60862 z m 55.711464,-5.3335 c -2.84309,-4.47149 -5.27769,-8.24478 -5.41024,-8.38501 -0.31283,-0.33092 -3.49119,2.41954 -5.34795,4.62802 -1.41974,1.68867 -4.22167,6.50284 -3.93714,6.76464 0.19482,0.1793 19.64752,5.29437 19.76883,5.19825 0.0526,-0.0417 -2.23042,-3.73437 -5.0735,-8.2059 z m -84.716547,-3.41062 c -1.439879,-5.21225 -2.688125,-9.54385 -2.773886,-9.62567 -0.250101,-0.23867 -5.010411,2.13545 -6.978041,3.48027 -1.812895,1.2391 -5.18686,4.33216 -4.939691,4.52844 0.667056,0.5297 16.961395,11.0938 17.111384,11.0938 0.109006,0 -0.979889,-4.26458 -2.419766,-9.47684 z m 112.861677,4.56811 c 4.11278,-2.69977 7.92993,-5.23227 8.48256,-5.6277 l 1.00483,-0.71902 -1.60572,-1.56734 c -2.17582,-2.1239 -4.79589,-3.87933 -7.80553,-5.22972 -1.77229,-0.7952 -2.56815,-1.02631 -2.70699,-0.786 -0.10816,0.18715 -1.10069,3.63132 -2.2056,7.65358 -1.10491,4.02227 -2.25896,8.18434 -2.56457,9.24907 -0.30563,1.06472 -0.44794,1.93586 -0.31622,1.93586 0.13175,0 3.60449,-2.20894 7.71724,-4.90873 z M 71.495282,227.68045 c -0.638415,-0.60942 -5.588842,-1.45981 -9.357148,-1.60742 -3.829067,-0.14987 -4.00644,-0.13221 -3.851922,0.38316 0.08909,0.2972 0.991007,4.47661 2.004264,9.28755 1.013258,4.81094 1.909088,8.93762 1.990737,9.17038 0.08164,0.23278 2.242219,-3.49804 4.801267,-8.29068 2.559051,-4.79263 4.544808,-8.81698 4.412802,-8.94299 z m 78.593288,15.23312 c 0.6835,-3.41436 3.37228,-15.90894 3.54158,-16.45738 0.15903,-0.51517 -0.0204,-0.53369 -3.84709,-0.39709 -3.81859,0.13638 -8.67112,0.99096 -9.38293,1.65253 -0.1467,0.13638 1.76351,4.02697 4.35049,8.86097 2.5366,4.73985 4.69137,8.52504 4.78838,8.41152 0.097,-0.11357 0.34434,-1.04527 0.54957,-2.07055 z M 75.315509,183.97765 V 154.00781 H 50.979711 26.643914 v 29.96984 29.96985 h 24.335797 24.335798 z m 55.281321,0 V 154.00781 H 106.11081 81.624792 v 29.96984 29.96985 h 24.486018 24.48602 z m 54.98088,0 v -29.96984 h -24.3358 -24.3358 v 29.96984 29.96985 h 24.3358 24.3358 z"
       id="path39" />
  </g>
</svg>
