<?xml version="1.0" encoding="utf-8"?>

<!DOCTYPE svg PUBLIC "-//W3C//DTD SVG 1.1//EN" "http://www.w3.org/Graphics/SVG/1.1/DTD/svg11.dtd">
<svg version="1.1" id="Layer_1" xmlns="http://www.w3.org/2000/svg" xmlns:xlink="http://www.w3.org/1999/xlink" x="0px" y="0px"
	 viewBox="-71.0351 175.5933 2862.9927 2113.2327" enable-background="new -71.0351 175.5933 2862.9927 2113.2327"
	 xml:space="preserve">
<g>
	<path d="M2584.51,277.98c13.74-12.3,26.6599-25.54,40.4299-37.8c-10.95,14.73-22.5898,28.98-33.96,43.39
		c12.5,13.63,25.52,26.77,37.98,40.44c-7.51-5.04-14.27-11.14-21.5-16.56c-7.29-5.9-14.8201-11.49-22.01-17.49
		c-13.6599,12.46-26.8298,25.47-40.4399,37.98c5.0901-7.69,11.3401-14.57,16.8799-21.96c-12.8298,1.17-25.6799,2.2-38.48,3.59
		c-4.02,2.41-7.1599,6.19-10.3098,9.62c-0.77,1.14-1.5701-0.57-2.0901-0.99c-2.0801,2.7-4.47,5.18-6.4099,7.97l5.0498-3.77
		c-1.3999,1.58-2.4399,3.2-3.72,4.8c4.3201,14.39,8.77,28.75,12.9001,43.19c-6.1702-12.46-11.1101-25.53-16.79-38.23
		c-6.4199,8.49-14.97,14.96-22.53,22.35c-5.02,4.91-10.4399,9.42-15.3999,14.36c2.6399-1.1,4.1399-3.63,6.3499-5.35
		c6.9102-5.87,13.5601-12.04,20.6201-17.73c-7.3701,10.31-15.0901,20.38-22.9001,30.35c-5.8098,6.82-10.8999,14.55-18.46,19.6
		c-13.5701,10.09-27.27,20.02-40.7,30.29c13.1499-8.9,26.1399-18.07,39.2-27.11c-1.1799,3.85-3.77,7.03-5.9199,10.36
		c-8.1899,11.64-16.6899,23.13-26.48,33.49c-2.1301,2.28-4.5801,4.27-7.3301,5.74c-19.25,11.18-38.27,22.76-57.6899,33.63
		c-1.3901,0.82-3.05,1.54-4.4202,2.22c-0.73-3.25,1.8501-5.85,3.4902-8.35c7.8298-10.16,17.3198-18.93,27.0798-27.22
		c5.75-5.02,12.3-8.97,18.6401-13.2c-0.1301-0.34-0.4001-1.01-0.53-1.34c5.54-9.21,13.74-16.41,21.3599-23.86
		c5.8201-5.54,11.78-10.96,18.0901-15.97c4.6399-3.29,8.55-7.55,13.48-10.48c2.6301-2.61,5.3999-5.12,7.98-7.81
		c-3.23,1.85-5.45,6.6-9.4299,6.39c9.6799-9.96,19.6199-19.69,29.8799-29.07c8.79-7.42,16.6902-15.77,24.23-24.45
		c-2.1499-4.97-4.24-9.96-6.4099-14.91c-16.71,11.4-33.1599,23.2-49.98,34.43c6.3699-6.74,13.8699-12.37,20.7-18.66
		c8.25-7.21,16.46-14.46,24.6899-21.71c-11.3098-8.59-22.6299-17.18-33.9099-25.82c-4.6799-3.81-9.9099-6.99-14.1399-11.29
		c17.48,10.18,34.7798,20.68,52.23,30.94c6.6299-19.1,13.51-38.1,19.9199-57.27c0.23,4.62-1.5901,9.01-2.3999,13.5
		c-3.4302,15.28-6.9102,30.55-10.3301,45.83c7.3201,0.14,14.6499,0.46,21.99,0.45c4.6499-4.1,7.98-9.59,12.52-13.88
		c0.8,1.46,1.9299,2.6,3.7,2.8c-3.77,3.85-7.6099,7.62-11.52,11.32c11.48,0.14,22.96,0.43,34.4399,0.77
		c5.74-6.94,11.1301-14.18,16.8801-21.12c-12.54-13.77-25.8201-26.88-38.2-40.79C2555.55,254.84,2570.05,266.4,2584.51,277.98
		 M2501.28,311.53c1.25,4.24,2.51,8.47,3.8301,12.7c2.5198-2.87,5.2898-5.59,7.3198-8.86c0.45,0.8,0.9202,1.6,1.4402,2.4
		c1.2798-2.92,3.49-5.29,5.3999-7.81C2513.26,310.39,2507.27,310.94,2501.28,311.53z"/>
	<path d="M2220.9099,283.72c3.1602-8.4,6.3401-16.82,9.9502-25.04c-1.54,8.64-4.1001,17.08-5.75,25.71
		c8.8799,1.73,17.72,3.66,26.6199,5.32c-9.3401,0.17-18.6499-0.96-27.96-1.36c-3.3101,8.19-6.3601,16.48-9.78,24.62
		c1.24-8.51,3.76-16.79,5.53-25.2c-8.9299-1.8-17.8401-3.67-26.78-5.37C2202.1399,282.22,2211.51,283.47,2220.9099,283.72z"/>
	<path d="M2120.8301,290.34c6.6799-7.22,13.5498-14.25,20.3599-21.34c-5.5698,8.11-11.97,15.61-17.9299,23.42
		c6.6101,6.73,13.73,12.94,20.29,19.7c-7.8501-5.19-14.9001-11.52-22.52-17.06c-6.78,6.99-13.3401,14.21-20.28,21.04
		c5.6599-7.93,11.8601-15.47,17.79-23.21c-6.8201-6.8-14.1301-13.12-20.7-20.15C2105.6699,278.38,2113.0601,284.61,2120.8301,290.34
		z"/>
	<path d="M2331.73,306.24c0.1401,0.02,0.4099,0.05,0.55,0.07c1.3899,22.11,3.05,44.2,4.54,66.3c19.95-9.6,39.6899-19.66,59.78-28.98
		c-17.8901,12.91-36.7202,24.58-54.7202,37.36c12.2202,8.59,24.79,16.71,37.1201,25.16c5.72,4.09,12,7.48,17.3301,12.08
		c-19.98-9.33-39.6301-19.39-59.54-28.89c-1.6501,22.29-2.77,44.64-4.8301,66.88c-1.8699-22.27-3.1699-44.59-4.75-66.88
		c-20.03,9.58-39.8201,19.65-59.9099,29.09c4.77-4.03,10.24-7.13,15.3599-10.72c12.3801-8.31,24.7002-16.71,37.1201-24.95
		c0.6099-0.68,2.25-0.93,2-2.15c-18.02-12.45-36.5601-24.21-54.3401-36.96c20.0701,9.3,39.79,19.37,59.74,28.96
		C2328.6699,350.48,2330.3201,328.37,2331.73,306.24z"/>
	<path d="M1848.05,320.68c6.51,19.01,12.0599,38.41,18.1399,57.58c18.3201-9.49,36.15-19.92,54.4401-29.49
		c-16.52,12.35-33.66,23.93-50.42,35.97c15.02,14.2,30.1801,28.27,45.0801,42.61c-6.38-4.01-12.12-8.93-18.24-13.3
		c-10.5701-7.86-21.1101-15.73-31.64-23.62c-8.8101,18.55-17.4301,37.21-26.41,55.68c1.9399-8.06,5.21-15.74,7.67-23.65
		c3.99-11.6,7.89-23.22,11.8099-34.84c-21.2-2.69-42.4-5.35-63.58-8.18c21.36,0.19,42.72,0.47,64.08,0.8
		c-2.7-14.7-5.51-29.37-8.28-44.06C1849.83,331.01,1848.45,325.92,1848.05,320.68z"/>
	<path d="M2149.6101,324.83c8.2998,8.31,15.9299,17.28,23.8699,25.94c7.1499-9.21,13.6301-18.95,20.96-28.03
		c-5.3699,10.35-11.46,20.33-17.1799,30.49c10.73,3.36,21.3,7.28,32.1199,10.4c-3.1899,0.49-6.2998-0.58-9.3799-1.17
		c-7.98-1.62-15.9299-3.35-23.9099-4.9c-0.23,12.21,0.3799,24.48-0.6101,36.67c-0.9299-12.19-2.5901-24.3-3.75-36.46
		c-11.1499,3.32-22.0901,7.39-33.3301,10.34c10.3701-5.19,21.1301-9.61,31.6802-14.45
		C2163.3999,343.95,2156.1699,334.61,2149.6101,324.83z"/>
	<path d="M2009.74,328.22c7.03,12.26,13.1,25.1,19.66,37.63c11.2999-8.9,22.36-18.09,33.7299-26.88
		c-9.7,10.52-19.9799,20.53-30.1299,30.63c11.55,8.21,23.8401,15.35,35.3301,23.63c-12.8801-5.83-25.2401-12.8-38.0601-18.77
		c-3.51,13.62-7.72,27.07-10.89,40.78c-0.51-3.85,0.5699-7.64,1.0699-11.42c1.51-10.2,3.26-20.36,4.6001-30.57
		c-11.3401,0.6-22.6901,1.06-34.02,1.64c-2.55,0.15-5.0901,0.11-7.5701-0.36c13.76-1.87,27.4401-4.37,41.16-6.56
		C2019.64,354.73,2014.46,341.56,2009.74,328.22z"/>
	<path d="M2097.8999,400.56c15.9702-1.47,32.04-1.72,48.0701-0.98c10.25,0.61,20.6101,1.33,30.5701,4.05
		c13.8101,4.05,27.1499,11.62,35.54,23.61c8.3799,11.89,11.74,26.47,13.7,40.67c1.1599,14.07-9.4099,26.04-8.3501,40.1
		c0.75,6.49,2.5601,12.84,4.8701,18.95c4.8201-4.41,9.1699-9.3,13.8398-13.87c16.8401-15.38,25.6702-36.99,38.9702-55.12
		c2.0498-2.51,4.1299-5.8,7.74-5.94c2.2998,3.81,2.52,8.63,0.9299,12.74c-1.3201,3.95-3.8701,7.8-3.25,12.13
		c0.47,1.76,1.3499,3.57,2.9399,4.62c1.7,0.63,2.99-1.06,3.74-2.35c4.0801-7.35,5.5701-16.21,11.4199-22.54
		c1.9702-1.64,4.3401-3.99,7.1501-3.34c2,3.29,0.01,7.32-0.78,10.73c-6.0901,17.99-14.8601,34.92-23.21,51.93
		c-3.8,8.01-10.6001,13.92-15.73,21c-3.8901,5.12-5.71,11.42-6.3901,17.73c1.3501,0.8,2.75,1.61,4.1401,2.44
		c5.1599-5.34,10.8899-10.13,16.97-14.4c5.7-4.27,12.6499-6.24,19.04-9.22c20.21-8.67,40.4299-17.31,60.6499-25.98
		c0.5701,0,1.71,0,2.28,0c-0.99,5.85-4.3101,10.88-7.3799,15.83c-6.1501,9.61-13.1602,18.71-21.3401,26.69
		c-2.76,2.64-5.73,5.2401-9.4199,6.43c-20.54,7.27-41.0801,14.54-61.6101,21.8101c0.26,0.4399,0.8,1.3,1.0701,1.73
		c17.5898-6.09,35.1799-12.15,52.77-18.26c1.1499-0.53,3.0698-0.55,3.0398,1.25c0.1602,3.49-1.7,6.7-3.1099,9.79
		c-7.1001,13.43-16.9299,25.26-27.54,36.06c15.8401,20.47,33.1201,39.84,47.8999,61.13c13.76,19.32,25.1902,40.16,38.3301,59.89
		c11.6799,17.87,25.24,34.39,39.1799,50.52c14.7102,16.96,28.29,34.97,39.54,54.43c7.4302,12.69,14.1301,25.79,21.4102,38.57
		c4.8098,8.05,9.1199,16.49,15.28,23.64c7.3899,8.6299,16.3899,15.68,24.23,23.8799c6.8198,7,12.6099,16,12.51,26.11
		c0.25,9.01-4.0901,17.12-7.1501,25.33c-4.3799,11.32-11.3999,21.66-13.7,33.73c-1.1201,5.54-3.54,11-7.8601,14.78
		c-6.4299,5.78-15.2798,7.27-22.72,11.28c-9.04,4.64-15.3298,13.33-24.8,17.26c-10.9399,4.74-22.3398,9.59-34.45,9.6699
		c-6.4299,0.1101-13.25-2.75-16.3899-8.59c-3.3301-5.26-2.1501-11.76-3.96-17.49c-3.1301-12.68-8.1001-25.63-18.03-34.57
		c-11.6799-10.61-27.3901-14.87-40.1201-23.93c-18.99-13.45-32.3198-33.18-50.8298-47.2c-12.53-9.41-25.1602-19-39.6301-25.2599
		c-10.45-4.44-20.8899-9.1201-31.9399-11.86c-16.9299-4.24-35.4099-2.22-50.9001,5.85c-9.9199,5.15-18.98,11.74-28.45,17.62
		c-12.6199,7.9-24.71,17.27-32.95,29.87c-8.49,12.27-10.8899,27.31-13.4199,41.69c-1.6702,9.49-4.21,18.82-7.6899,27.82
		c-6.8101,19.26-14.4001,38.23-22.3201,57.0599c-5.1101,12.8101-11.4001,25.1001-18.26,37.05c-7.28,12.75-14.61,25.6-19.54,39.48
		c-3.62,9.99-5.66,20.4501-8.02,30.79c-3.37,14.88-4.6,30.4399-1.7999,45.52c2,9.9099,7.3899,18.89,8.4099,29.0499
		c1.98,14.49-1.65,28.89-5.49,42.76c-4.23,15.55-6.13,31.6-9.99,47.24c-3.96,17.8-10.4299,34.88-16.49,52.03
		c-3.79,11.6801-8.39,23.16-10.72,35.25c-1.28,6.35-2.47,12.73-4.4,18.9301c10.98,0.2999,20,7.25,29.02,12.7
		c6.6,4.17,13.62,7.89,21.29,9.67c28.55,8.1699,57.6099,14.3199,86.5999,20.72c15.49,3.38,31.52,2.2,47.0801,5.0599
		c11.6201,2.04,22.48,7.55,31.26,15.4c11.6101,10.11,18.8401,23.9301,27.76,36.24c7.1199,10.1,14.54,20.17,19.3601,31.64
		c4.21,9.58,6.5398,19.9,7.1599,30.34c0.5601,9.37,1.5601,18.7001,3.22,27.9401c3.74,24.5499,7.74,49.13,14.46,73.0699
		c7.8101,29.02,22.9299,55.48,30.28,84.66c2.8899,9.99,9.9399,18.74,10.25,29.4301c0.1799,6.47-3.1499,12.5199-7.96,16.6699
		c-8.6599,7.72-12.1699,19.36-14.1301,30.42c-1.3499,8-2.8999,15.98-5.1299,23.79c-3.79,14.96-6.4099,30.21-10.6101,45.0699
		c-1.8298,6.71-4.3098,13.24-5.97,20.01c-3.96,15.67-6.6699,31.63-10.4399,47.36c-2.05,8.25-4.1201,16.59-7.8101,24.3
		c-1.8398,3.5499-4.04,7.5399-8.0798,8.89c-3.5801,0.87-6.8901-1.52-9.1902-3.9801c-4.5798-4.48-6.75-10.63-9.99-16
		c-9.8198-16.2799-24.21-29.6799-31.3198-47.6c-4.7002-10.53-9.76-21.21-10.9102-32.83c-0.97-10.3301-0.4399-20.99,3.2-30.79
		c2.55-7.86,6.54-15.5499,13.1101-20.78c7.0801-5.38,17.4299-2.8999,24.0901-9.0499c9.1199-9.26,11.4199-25.7001,2.8298-36.05
		c-2.0999-2.84-3.8899-5.97-4.5798-9.45c-2.04-8.27,0.46-16.67,0.3398-25c-0.46-23.11-1.4399-46.29-5.3-69.12
		c-2.1199-13.0901-5.24-25.98-7.8999-38.9601c-3.8699-18.1499-8.48-36.36-17.01-52.9399c-5.9299-11.66-13.55-22.34-21.1299-32.96
		c-9.7202-13.49-22.01-25.42-36.9702-32.9301c-10.9299-5.88-23.3799-8.8199-35.7798-8.49c-18.03,0.38-35.4102,5.75-53.1401,8.42
		c-11.87,1.98-23.9299,2.0399-35.8999,2.7699c-22.4301,1.0701-44.8501,2.4701-67.1201,5.27c-7.47,0.98-14.6399,3.38-21.96,5.02
		c-14.29,3.4-30,0.4401-42.02-8.03c21.4,32.52,55.5901,53.03,81.39,81.54c7.6901,8.02,13.8,17.41,21.9,25.05
		c8.76,8.95,18.6899,16.72,26.8,26.3099c6.3099,7.4301,11.34,16.1801,13.1399,25.85c2.63,14.36,1.16,29.4801-4.3199,43.03
		c-6.9,16.6901-18.98,30.8101-32.8099,42.21c-16.01,12.55-37.0901,13.9501-55.3,21.7401c-39.63,17.86-78.1801,38.1-115.34,60.6499
		c-7.7001,4.8201-15.99,8.9501-22.4801,15.4401c-8.11,7.49-14.58,16.86-24.0399,22.8099c-7.74,4.8401-18.3,4.49-25.64-0.9299
		c-8.29-6.15-12.27-16.42-20.65-22.47c-10.52-7.3601-22.29-12.8201-34.5499-16.5701c-6.88-2.0699-13.8-4.28-21.01-4.65
		c-10.1101-0.61-20.65,0.23-30.17-3.84c-12.4-4.7-20.59-15.54-29.8101-24.45c-12.74-12.6101-30.3999-18.3601-43.59-30.3601
		c-6.13-5.5399-13.4199-9.7699-18.78-16.12c-3.95-4.7699-6.5599-11.1-5.8099-17.34c0.5499-5.08,5.6799-7.71,10.1799-8.59
		c10.1901-1.9501,20.63-0.8101,30.9301-0.62c11.87,0.1899,24.39,0.7999,35.45-4.28c10.62-4.83,18.5901-13.95,29.26-18.6899
		c10.54-4.8301,23.03-0.12,30.55,7.95c6.64,7.24,10.24,16.61,13.17,25.84c1.5099,5,3.4399,10.0701,3.11,15.4
		c-0.14,4.99-1.04,10.38,1.4199,15.01c2.4301,5.09,7.48,8.6,12.99,9.58c8.9301,1.7201,18.0601,0.04,27.0701,0.89
		c17.6699,1.72,35.9299,0.5,52.66-5.8099c20.24-7.73,37.7799-20.9,57.6699-29.39c14.61-6.51,30.1801-10.59,44.63-17.48
		c10.13-4.8101,19.4501-11.4701,26.86-19.9301c5.12-5.89,12.02-10.11,16.3401-16.71c3.6899-5.53,2.7999-13.65-2.26-18.04
		c-5.7001-4.9-13.4401-6.26-19.55-10.5c-9.01-6.27-18.5599-11.75-28.46-16.46c-22.7101-10.92-47.1901-17.34-70.62-26.41
		c-13.54-5.21-26.74-11.37-39.16-18.87c-20.74-12.26-37.17-30.23-56.88-43.9c-14.88-10.38-32.0601-16.89-49.42-21.75
		c-18.98-4.7-38.26-8.84-57.85-9.6599c-23.33-1.05-46.63,1.72-69.96,0.99c-17.79-0.5601-35.51-2.4301-53.2001-4.29
		c-46.34-5.03-92.08-14.16-137.7999-22.99c-19.89-4-39.88-7.49-60.02-9.99c-22.5601-3-45.26-6.26-66.91-13.5601
		c-21.27-7.0499-41.5-17.1899-59.9199-29.9399c-29.78-20.73-54.51-47.5601-82.53-70.4401c-9.3-7.1599-14.8-17.8199-22.87-26.14
		c-5.55-5.98-13.8301-9.01-21.93-8.0399c3.7,9.84,4.58,20.4399,5.36,30.84c0.63,7.36-0.58,14.75,0.36,22.1
		c2.1201,19.79,9.32,38.61,11.7401,58.35c4.0499,23.6001,13.76,45.8101,17.5599,69.4601c1.8,11.5599,5.5701,22.6799,8.05,34.1
		c2.46,10.8,1.62,21.97,2.96,32.91c0.86,11.9099,4.59,23.3199,7.53,34.8199c4.5699,17.6801,11.12,34.76,18.22,51.5601
		c8.1,19.2799,12.99,39.74,21.1901,58.98c6.2599,14.64,15.1,28.3099,26.6899,39.2999c2.45,2.3301,4.8,4.8101,6.59,7.7201
		c-4.9-1.28-8.87-4.6101-13.11-7.2001c-18.25-11.86-35.73-25.1-55.38-34.63c-22.99-12.0599-46.51-23.58-71.64-30.4399
		c-13.04-3.17-26.78,0.62-39.7-3.16c-8.71-2.52-14.73-10.41-17.28-18.8099c-6.22-21.16-18.18-40.01-25.17-60.88
		c-4.32-12.87-6.16-26.91-3.21-40.28c-10.36,14.13-21.91,28.41-25.9,45.87c-3.96,17.04,3.22,34.54,13.56,47.9
		c8.2,10.5399,19.27,18.3199,30.29,25.6599c6.93,4.7201,14.44,8.67,22.49,11.12c20.28,6.1901,42.05,4.62,62.26,11.2101
		c20.96,7.0499,41.05,16.58,60.09,27.8199c27.9299,16.55,54.12,35.86,82.14,52.27c24.7,14.59,50.0499,28.36,72.62,46.2
		c20.98,16.2101,38.74,36.13,54.7899,57.13c16.41,21.1801,31.79,43.27,50.2401,62.7701c10.38,10.98,21.4299,21.3799,33.59,30.3699
		c27.91,21,63.04,30.3101,89.41,53.5901c9.61,8.1499,16.72,18.6299,25.0699,27.96c4.85,5.5901,9.2,11.8699,11.05,19.1399
		c1.6799,6.23,1.7699,13.22-1.3301,19.05c-3.6799,7.2-10.71,11.99-17.98,15.0701c-12.3,5.1799-25.77,6.8699-39.02,7.1799
		c-15.37,0.22-30.87-1.6299-45.49-6.49c-9.76-2.9399-19.49-7.0999-26.6899-14.53c-4.62-4.0898-7.4701-9.9099-8.1001-16
		c-1.34-10.5601,1.8-21.3999-1.1599-31.79c-1.78-6.6499-6.9-11.8098-12.6801-15.22c-6.15-3.5698-13.16-5.1299-19.89-7.1899
		c-10.7799-3.0601-20.1-9.51-29.4099-15.5c-32.5601-22-56.02-54.3-86.3101-78.98c-34.54-28.05-70.13-54.91-107.91-78.48
		c13.11,12.1,25.5701,24.89,38.9,36.76c12.27,11,27.8101,17.25,41.01,26.9399c6.62,4.9301,12.53,11.35,15.0701,19.36
		c2.4099,7.0001,2.1499,14.63,0.3899,21.7601c-2.5399,10.1499-2.0699,20.6899-1.7799,31.0598
		c0.2999,11.4402,1.98,22.78,3.0599,34.1602c0.72,7.77,4.96,14.5798,6.88,22.04c0.6901,2.8999,1.04,6.3398-0.7999,8.9299
		c-2.8201,3.52-7.77,4.9099-12.0701,3.72c-5.79-1.5701-10.71-5.1899-16.11-7.6499c-10.09-4.77-16.38-14.3401-24.23-21.8301
		c-13.2101-12.5701-30.4301-20.51-41.9401-34.9299c-5.4399-7.0901-10.7799-14.3301-14.85-22.29c-4.63-9.01-6.64-19.0701-7.78-29.05
		c-0.7699-9.48,0.4601-19.86,6.5801-27.51c2.49-3.23,5.1799-6.41,6.64-10.27c3.36-9.1899,2.85-19.4299-0.1801-28.63
		c-3.04-8.8099-6.49-17.86-13.24-24.5499c-4.59-4.4601-8.77-9.29-12.7-14.3c-13.3401-8.17-27.2001-15.5-40.8301-23.1801
		c-36.61-20.6-74.28-39.2799-112.7-56.2799c-40.96-18.2001-82.48-35.14-123.35-53.53c-6.63-2.96-13.18-6.2-20.26-7.95
		c-11.9-3.3501-24.66-4.2201-35.74-10.1101c-7.16-3.7899-12.46-10.3999-15.43-17.86c-4.49-10.36-4.14-21.9-3.61-32.9299
		c0.44-7.53,2.69-14.89,6.27-21.5c6.2-11.67,15.5099-21.24,22.56-32.3301c3.65-5.6699,6.58-11.7799,8.89-18.1
		c7.63-19.4399,14.91-39.23,17.96-59.99c1.73-10.95,2.29-22.03,3.62-33.03c1.31-12.9299,2.37-26.1699-0.57-38.96
		c-3.31-14.91-11.64-29.03-24.4-37.72c-15.3-10.54-33.69-15.47-48.9-26.2001c-31.7-22.36-67.01-38.6899-101.32-56.5
		c-19.68-10.38-39.17-21.4099-56.57-35.37c-14.67-11.7-27.76-25.49-38.1-41.1799c-9.4-14.0901-16.24-29.6801-22.3-45.4401
		c-7.14-18.7899-12.36-38.37-14.73-58.35c-3.03-24.64-1.68-49.61,1.82-74.12c2-14.91,6.77-29.23,11.42-43.46
		c-7.92,15.6799-9.42,34.13-19.38,48.9099c-9.19,13.5-22.87,23.26-37.14,30.8201c-10.19,5.3099-20.61,10.15-30.74,15.59
		c0.09,5.67,1,11.3201,0.68,17c-0.65,11.49-3.73,22.64-5.33,34.01c-1.9,12.5601-0.62,25.3101,0.57,37.88
		c1.84,17.63,7.38,35.1801,18.19,49.41c5.26,7.35,12.05,13.7,20.16,17.7899c14.38,7.2001,31.1,10.54,42.97,22.0901
		c9.04,8.2899,17.67,17.0299,25.88,26.15c2.84,3.4399,6.32,6.62,7.75,10.98c-6.43-1.55-11.01-6.74-15.59-11.16
		c-7.1-7.25-16.74-11.4-26.46-13.8c-9.31-2.2699-18.89-3.51-27.97-6.6699c-10.17-3.63-20.76-6.48-30.06-12.11
		c-10.42-6.3401-17.58-16.7101-27.88-23.1901c-5.82-3.75-12.7-5.14-18.99-7.84c-5.96-2.27-12.16-4.97-18.68-4.3101
		c-6.93,0.7001-12.5,7.87-11.04,14.79c1.58,8.12,6.89,14.9301,8.67,23.02c2.43,11.47,6.21,22.6,9.31,33.9
		c2.17,7.7699,3.65,15.71,5.45,23.58c3.13,14.02,6.35,28.13,6.94,42.55c0.55,10.98-0.69,21.9399-1.86,32.85
		c-1.83,16.47-4.78,33.1699-12.3,48.1c-4.82,9.63-11.62,18.2-19.66,25.35c-7.26,6.22-16.36,9.6801-25.25,12.88
		c-14.26,4.79-29,8.0801-43.83,10.5701c4.05-4.4501,10.22-4.2201,15.59-5.66c9.6-1.99,18.6-6.0701,27.21-10.66
		c13.62-7.4299,24.94-19.4399,30.54-34.01c4.44-11.6,6.34-23.9399,9.01-36.01c4.49-22.0399,3.16-44.96-2.38-66.6699
		c-5.61-19.63-22.34-34.3501-25.51-54.89c-2.16-9.1,1.9-18.36-0.37-27.42c-0.35-1.76-1.25-3.27-2.36-4.6
		c-2.74,3.48-3.44,7.96-4.41,12.17c-2.49,12.5499-4.1,25.26-5.52,37.98c-1.2,10.96-0.2,22,1.25,32.89
		c1.82,13,2.07,26.1599,4.01,39.1599c4.3,30-2.84,60.86-17.04,87.39c-6.2,10.8-15.44,19.52-25.41,26.8201
		c-6.4,1.6499-12.91,2.87-19.41,4.0699c-2.59,0.49-5.29,0.78-7.65,2.04c7.48-0.02,14.82-1.6,22.23-2.42
		c-15.13,10.87-31.32,22.49-38.66,40.3301c-8.86,22.8199-16.66,47.0299-14.8,71.84c-4.86-8.62-9.35-17.64-11.41-27.38
		c-1.35-6.3201-2.3-12.75-2.48-19.22c-5.56,11.2899-10.96,22.6799-15.79,34.3099c-6.6,16.13-8.54,34.14-18.12,49.02
		c-8.51,12.77-18.24,25.1801-31.1,33.84c-8.95,6.13-19.17,10.01-29.32,13.67c-9.46,3.25-19.44,5.76-29.52,5.13
		c-9.89-0.63-19.67-4.5801-26.81-11.53c-6.54-6.28-12.13-13.49-17.14-21.03c-2.21-3.72-4.95-7.36-5.66-11.72
		c0.42-0.14,1.25-0.41,1.67-0.54c6.74,3.16,10.06,10.1901,15.46,14.92c13.89,11.04,32.97,15.48,50.22,10.9
		c11.63-3.05,22.8-9.12,30.46-18.5601c7.31-8.9099,11.4-19.86,15.56-30.46c2.1-5.33,5.79-9.9301,7.37-15.47
		c1.1-3.54-0.06-7.73-3.05-9.97c-1.61-1.2001-3.72-0.3701-4.93,1c-6,6.3999-8.85,15.45-16.06,20.7799
		c-11.09,6.35-24.45,8.4701-37.02,6.3c-10.03-1.75-20.03-4.78-28.62-10.38c-12.44-8.5701-22.87-20.59-28.12-34.88
		c-4.01-10.9301-7.65-22.12-9.01-33.73c-1.52-12.6801-0.47-25.48,0.76-38.14c1.32-10.8201,0.73-22.05,4.62-32.4
		c4.98-12.7999,13.43-24.73,25.44-31.79c6.79-4.13,14.45-6.4199,21.91-9c6.04-2.1,13.45-2.0399,18.43,2.4501
		c-0.87,1.49-2.09,2.75-3.71,3.4299c-9.65,4.7001-20.57,7.0701-29.12,13.87c-5.91,4.8601-7.26,13.2001-6.82,20.4401
		c1.29,14.23,9.22,27.22,19.55,36.8c7.35,6.7,16.49,12.1599,26.6,12.83c9.62,0.74,19.2-4.4,24.41-12.41
		c5.21-7.89,7.21-17.27,9.98-26.16c2.33-8.1899,6.24-15.7999,8.9-23.88c7.38-21.2,9.15-43.83,9.21-66.1299
		c0.03-26.1101-0.76-52.4501,4.08-78.2401c4.98-25.99,7.83-52.38,14.06-78.12c3.97-16.6,9.66-32.7999,16.93-48.24
		c9.4-20.01,19.36-39.89,32.18-57.95c11.36-16.28,25.15-30.8101,40.56-43.3c11.22-9.4299,23.68-17.5299,37.44-22.71
		c22.52-8.85,46.81-11.04,70.3-16.09c1.28-0.5,3.03-0.3101,3.99-1.38c8.25-13.5901,18.86-25.6801,30.54-36.4301
		c9.25-8.4,19.88-15.0399,30.13-22.11c13.31-9.16,26.49-18.6899,41.14-25.63c8.79-4.1899,15.65-11.45,24.37-15.74
		c2.07-1.1,5.7-1.71,6.55,1.1901c1.81,4.6599-1.02,9.23-3.45,13.0399c-3.28,5.39-4.98,11.53-7.62,17.23
		c2.34-1.98,5.76-3.12,6.9-6.1899c7.33-18.46,15.69-36.52,24.74-54.2001c0.7401-1.58,1.92-2.87,3.1801-4.0499
		c16.16-15.8101,32.35-31.68,50.0699-45.76c14.1201-11.39,28.8701-22.02,44.25-31.64c19.2401-12.17,39.36-22.84,59.34-33.71
		c11.95-6.45,37.25-18.63,43.85-22.13c2.22-1.06,9.54-4.08,9.54-4.08c22.39-8.92,45.81-15.13,69.52-19.37
		c26.04-4.72,52.66-5.63,79.05-4.07c21.46,1.32,42.98,3.14,64.02,7.76c23.94,5.13,47.22,12.87,71.02,18.63
		c39.84,9.67,79.1,21.6,118.96,31.25c24.9,6.18,49.08,14.88,73.9199,21.28c20.55,5.32,41.7301,8.37,62.9901,8.47
		c25.5299,0.57,50.84-3.38,76.08-6.69c22.62-3.14,44.38-10.63,67.05-13.5c22.0199-3.03,44.4199-1.74,66.2999,1.8
		c23.34,3.73,46.63,8.59,70.35,9.09c1.99-8.9,5.48-17.3799,9.0701-25.73c1.61-2.94,2.71-6.79,6.1599-8.07
		c2.14,3.97,1.4601,8.7-0.59,12.56c-3.61,6.59-3.9399,14.22-5.22,21.47c12.77,0.49,25.55,1.01,38.33,1.32
		c-1.9399-6.85-5.62-13.1-7.01-20.11c-2.0199-10.59-0.9099-21.5,1.5701-31.92c1.38-5.08,0.65-10.5,2.3199-15.5
		c0.77-2.49,3.4601-5.08,6.2201-4.09c0.5699,1.15,0.1299,2.49-0.1001,3.7c-1.48,5.65-4.2799,11.02-4.6,16.94
		c0.3201,9.75,4.24,19.16,10.3,26.75c4.87,6.03,10.22,11.73,16.22,16.65c4.72,3.66,10.3,7.36,16.59,6.6
		c7.1,0.02,13.67-3.6,18.75-8.33c3.55-3.38,5.5701-9.56,2.36-13.78c-6.1-4.39-15.4199-0.25-20.7899-6.24
		c-6.1901-8.49-6.86-20.52-2.55-29.98c2.39-5.57,2.88-11.68,3.8101-17.6c1.46-9.89-3.6001-20.31-12.2101-25.36
		c-6.5299-3.9-14.73-6.8-22.15-3.66c-4.3999,1.52-6.4299,7.28-11.45,7.24c3-6.18,8.21-10.94,13.21-15.52
		c5.14-4.68,12.2001-7.01,19.12-6.4c7.8501,0.61,15.26,3.5,22.66,5.96c4.99,1.6,8.71,6.28,14.1901,6.47
		c3.7799,0.12,7.86,0.22,11.2899-1.67c3.79-2.39,4.99-7.57,3.3201-11.6c-2.13-5.12-4.7101-10.4-9.24-13.81
		c-3.9601-3.03-7.63-6.47-11.9301-9.01c-7.66-4.42-13.46-11.44-17.96-18.92c-5.48-9.38-4.6901-20.67-3.12-30.99
		c0.0699-1.16,0.71-2.13,1.3199-3.07c0.48,4.66-0.73,9.43,0.75,13.99c1.88,7.93,7.85,14.12,14.62,18.28
		c4.9601,3,10.01,6.64,15.99,7.04c5.2201,0.63,9.64-5.43,7.49-10.21c-2.4099-5.72-7.7999-9.9-9.01-16.2
		c-1.49-7.21-3.7-14.31-4.22-21.67c-0.11-1.28,0.01-4.68,2.0901-3.32c4.6799,2.43,4.36,8.41,6.45,12.6
		c4.25,8.34,11.79,14.16,18.4299,20.49c5.27,4.97,9.8501,11.2,16.9,13.78c3.89,1.25,7.8201,2.63,11.9301,3.02
		c4.46,0.36,9.75-2.78,9.8099-7.65c-0.1699-5.42-3.51-9.99-6.0499-14.56c-2.62-4.23-4.25-8.98-6.89-13.19
		c-1.74-2.82-3.4501-5.73-4.22-8.98c-1.9801-7.5,3.4399-15.32-0.25-22.58c-2.9401-7.3-10.6901-11.23-18.15-12.03
		c-7.74-0.87-15.66-0.73-23.3201,0.64c-6.4299,1.36-12.2799,4.54-17.73,8.09c-3.7899,2.46-6.59,6.57-11.2,7.6
		c2.1699-5.8799,7.04-10.17,11.02-14.8199c6.13-6.72,12.95-13.22,21.5599-16.58c13.4-5.55,28.23-4.07,42.36-3.59
		c12.7001,0.32,25.5901,1.21,37.67,5.46c6.59,2.4,13.25,5.01,18.88,9.29c8.04,5.87,14.9399,13.32,23.88,17.92
		c7.88,3.96,14.76,10.35,23.71,11.83c6,0.72,12-0.87,17.66-2.75c5.8099-2.14,11.8099-5.35,14.8-11.05
		c2.5299-4.93,2.0699-12.07-2.75-15.45c-6.1001-4.19-14.25-4.17-19.9801-9.02c-12.2899-11.01-20.0199-26.04-25.73-41.28
		c-4.35-11.94-5.9-24.85-4.5-37.48c0.8301-10.72,5.4501-20.58,9.11-30.55c-0.83,6.62-2,13.41-0.0699,19.98
		c2.48,9.57,8.67,18.38,17.22,23.44c10.22,5.16,21.49,0.02,32.03-1.14c8.83-1.51,17.53,1.06,26.1,2.87
		c6.3101,1.43,13.52,1.04,18.73-3.2c8.88-6.57,12.38-18.14,12.0801-28.79c0.0699-4.49-2.0801-8.56-3.15-12.81
		c-1.2001-3.98-1.5801-8.16-2.89-12.1c-3.15-7.34-9.67-13.03-17.27-15.38c-13.8099-4.4-28.58-2.63-42.66-5.4901
		c-25.39-5.15-51.2899-0.8199-76.89-1.1299c-1.3099,0.02-1.9199-0.54-1.8099-1.6801c4.4399-3.42,10.09-4.59,14.97-7.23
		c8.48-4.59,17.47-8.34,26.92-10.35c18.38-4.18,37.36-2.69,56.02-1.96c14.4199,0.57,28.8999,0.71,43.24,2.53
		c1.74-10.06,3.96-20.15,3.5499-30.4301c-0.25-8.81,0.04-17.98,4.13-26c5.05-11.24,14.4-19.55,22.7101-28.33
		c11.13-11.5,21.61-23.68,33.59-34.33c2.39-2.12,4.95-4.21,8.17-4.9c0.8999,4.35-1.66,8.5-4.27,11.78
		c-4.6901,5.6-11.27,9.71-14.42,16.52c-3.36,7.36-4.9299,15.93-3.49,23.87c9.75,4.25,19.24,9.09,28.52,14.3
		c-1.24-3.88,0.62-7.64,1.8199-11.26c1.1901-3.55,2.13-7.37,4.8-10.16c4.67-5.06,11.45-7.45,17.99-9.01
		c15.33-3.37,31.12-3.4,46.7001-4.62c7.6599-0.5,15.27-1.94,22.97-1.5c12.02,0.37,24.45,2.92,36.1699-1.06
		c7.73-2.81,15.6899-5.64,22.22-10.82c4.6899-3.8,8.0601-10.14,6.23-16.24c-2.1099-6.58-8.21-10.68-13.8999-13.97
		c-7.1001-3.7-14.6301-7.13-22.72-7.65c-10.2-0.73-20.8401,0.52-30.5801-3.27c-1.26-0.03-2.0801-2.19-0.54-2.46
		C2086.26,401.56,2092.1899,401.28,2097.8999,400.56 M2010.92,486.14c-3.3501,1.1-6.6801,2.75-8.54,5.88
		c-1.95,3.32-5.24,7.01-9.52,5.37c11.17,4.68,23.02,8.42,32.7001,15.96c8.48,6.26,16.4399,13.47,22.0699,22.48
		c2.7499-2.38,5.4-4.92,7.34-8.04c3.74-5.57,7.97-11.7,7.23-18.77c-1.1799-9.26-7.3699-17.61-15.6899-21.75
		C2035.53,481.78,2022.26,481.66,2010.92,486.14 M1961.65,488.9c1.8099,11.99,1.8199,24.15,3.23,36.18
		c1.11,9.69,3.86,19.19,8.28,27.9c3.86,7.82,4.7899,17.89,12.87,22.88c5.01-8.77,7.86-18.46,11.09-27.97
		c2.85-9.01,1.73-19.14-2.86-27.38c-2.88-5.42-7.12-9.93-11.36-14.29C1976.22,499.99,1970.13,492.78,1961.65,488.9 M318.79,1262.74
		c-11.25,14.78-16.62,32.8201-22.52,50.16c-3.26,9.7999-5.45,19.9199-7.04,30.12c9.95-19.1801,24.79-35.16,37.04-52.8301
		c11.49-16.1399,20.86-34.1399,25.03-53.6299C338.39,1242.23,326.98,1251.23,318.79,1262.74 M1001.82,1443.6
		c-0.86,12.23-0.8,24.51-1.48,36.76c4.36-7.6799,1.7599-16.8199,4.37-24.91c3.05-5.73,0.1-12.5,2.2599-18.4199
		c0.71-1.8301,2.6801-0.5801,3.9901-0.3301c-1.23-0.9399-3.04-1.5499-3.37-3.22c-0.97-4.64,1.66-8.9299,4.14-12.62
		C1004.16,1425.72,1002.57,1435.33,1001.82,1443.6 M944.73,1615.7c7.93-7.4199,13.93-16.61,18.8-26.25
		c8.75-16.5499,13.83-34.6699,20.86-51.95c3.85-9.24,6.21-19.0601,7.3-29C978.23,1545.16,960.21,1579.89,944.73,1615.7z"/>
	<path d="M610.87,403.74c4.57,7.51,8.06,15.64,12.31,23.35c9.62-3.64,19.08-7.71,28.81-11.04c-9.2,4.61-18.31,9.38-27.46,14.07
		c3.28,8.7,6.89,17.29,9.99,26.06c-4.9-7.92-8.59-16.53-13.07-24.69c-8.62,3.09-16.92,7.2-25.77,9.54
		c8.06-4.28,16.25-8.31,24.35-12.5C617.3,420.15,613.2,412.24,610.87,403.74z"/>
	<path d="M2470.96,407.28c4.1201,8.14,7.05,16.87,10.6699,25.26c8.9602-2.47,17.79-5.47,26.8301-7.64
		c-8.3699,4.11-17.27,7.06-25.78,10.86c2.5701,8.68,5.3601,17.32,7.47,26.13c-3.96-8.11-7.0298-16.65-10.4299-25.01
		c-5.6899,1.37-11.24,3.19-16.8599,4.76c-3.1802,0.83-6.27,2.3-9.6101,2.15c8.4299-3.21,16.77-6.67,25.1001-10.13
		C2476.1899,424.79,2473.0801,416.16,2470.96,407.28z"/>
	<path d="M1653.73,421.69c-1.8099,18.79-5.37,37.4-7.6899,56.14c18.08,5.15,35.96,10.99,54.12,15.82c-8.16-0.09-16.14-2.17-24.23-3
		c-10.5901-1.56-21.1801-3.08-31.76-4.61c-5.13,17.62-10.61,35.14-15.5901,52.81l-0.48-0.05c2.4501-18.23,5.28-36.4,7.79-54.61
		c-18.04-5.23-35.9501-10.86-54.04-15.9c8.3201,0.36,16.52,2.15,24.78,3.18c10.36,1.51,20.72,2.97,31.08,4.5
		C1643.04,457.88,1648.67,439.86,1653.73,421.69z"/>
	<path d="M716.54,463.42c6.71-6.08,12.9901-12.62,19.83-18.55c-5.13,7.09-10.71,13.86-16.16,20.71c7.2,5.73,14.82,10.93,22.08,16.58
		c-8.46-4.15-16.57-8.97-24.93-13.33c-6.61,6.11-12.92,12.56-19.67,18.53c5.08-7.12,10.66-13.87,16.1-20.72
		c-6.81-5.46-14.12-10.27-20.92-15.73C701.02,454.53,708.65,459.25,716.54,463.42z"/>
	<path d="M2526.8,488.16c2.1899-14.17,4.6299-28.32,6.8699-42.48c0.1902,14.36-1.25,28.71-1.6399,43.06
		c13.46-1.96,26.8599-4.37,40.3699-5.99c-12.7998,4.52-26.25,7.32-39.3098,11.13c6.27,12.62,12.76,25.13,18.9099,37.81
		c-8.3501-11.29-15.55-23.44-23.4299-35.08c-10.27,9.58-19.72,20.06-30.25,29.33c8.54-11.14,17.54-21.91,26.25-32.92
		c-12.27-6.38-24.6001-12.64-36.8601-19.03c3.79,0.43,7.22,2.28,10.8101,3.51C2507.9199,481.11,2517.3501,484.65,2526.8,488.16z"/>
	<path d="M1755.71,449.69c0.3201,3.01-0.6699,5.92-1.2999,8.82c-3.78,16.85-7.6,33.68-11.41,50.52c21.1,0.56,42.22,0.99,63.33,1.45
		c-20.97,2.45-42.0499,3.93-63.0499,6.06c5.8099,19.95,12.23,39.7401,17.6799,59.78c-8.4199-19-16.4299-38.19-24.71-57.25
		c-16.9,11.58-33.59,23.49-50.63,34.85c15.02-13.93,30.74-27.13,46.0699-40.73c-16.2999-12.46-32.74-24.76-48.9299-37.35
		c7.15,3.38,13.67,7.97,20.5699,11.84c10.8401,6.44,21.65,12.94,32.52,19.33C1742.39,487.87,1749.4301,468.91,1755.71,449.69z"/>
	<path d="M2370.0901,472.02c11.6699-6.38,23.28-12.89,35.02-19.14c-0.2102,4.7-3.52,8.47-5.78,12.39
		c-7.5901,11.49-15.9102,22.62-25.79,32.25c-3.98,4.24-9.7,5.81-14.73,8.33c-18.9102,8.77-37.8601,17.42-56.74,26.21
		c-1.51,0.61-3.23,1.44-4.75,0.51c-0.6201-3.05,1.51-5.71,2.96-8.2c6.75-9.75,15.5-17.92,24.49-25.58
		c6.01-5.36,13.03-9.3,20.1699-12.94C2353,480.66,2361.8101,476.83,2370.0901,472.02z"/>
	<path d="M2681.3601,476.74c6.98-5.32,13.5298-11.25,20.8198-16.15c-5.5798,6.47-11.77,12.4-17.3999,18.82
		c6.55,5.96,13.51,11.51,19.6899,17.86c-7.6699-4.93-15.1799-10.11-22.8401-15.05c-7.0298,5.24-13.47,11.29-20.8098,16.05
		c5.6799-6.36,11.75-12.37,17.3799-18.78c-6.1899-5.63-12.8499-10.8-18.5999-16.87C2667.1101,466.9,2674.04,472.12,2681.3601,476.74
		z"/>
	<path d="M1462.88,488.71c3.24-8.36,6.35-16.79,9.95-24.99c-1.62,8.58-3.86,17.03-5.83,25.54c8.71,1.96,17.5,3.62,26.25,5.4
		c-9.1801,0.21-18.35-0.91-27.51-1.33c-3.29,8.04-6.08,16.32-9.73,24.21c1.33-8.36,3.76-16.49,5.52-24.76
		c-9.1901-1.75-18.28-4.02-27.55-5.33C1443.63,487.09,1453.24,488.51,1462.88,488.71z"/>
	<path d="M1136.6801,472.68c0.33,3.84-0.53,7.64-0.9901,11.43c-2.22,16.61-4.58,33.2-6.7,49.82c15.34-1.07,30.6901-2.01,46.04-3.02
		c5.45-0.28,10.9099-1.02,16.38-0.5099c-20.5901,3.2-41.03,7.29-61.54,10.92c4.5699,11.68,9.29,23.3,13.88,34.98
		c2.64,7.37,6.33,14.41,8.3101,21.99c-9.7101-17.91-19.3301-35.87-28.9601-53.82c-15.88,12.92-31.38,26.33-47.37,39.1
		c13.66-15.21,28.22-29.65,42.26-44.53c-16.21-10.34-32.49-20.57-48.75-30.83l-2.83-2.22c18.5299,8.55,36.73,17.82,55.25,26.38
		C1126.58,512.45,1131.99,492.65,1136.6801,472.68z"/>
	<path d="M669.49,475.72c0.75,14.6,1.16,29.24,1.8,43.85c10.23-2.45,20.43-5.01,30.66-7.46c3.43-0.76,6.79-2.02,10.35-1.97
		c-13.19,4.67-26.25,9.74-39.44,14.43c7.58,12.61,15.51,25.01,23.12,37.6c-9.43-11.25-18.26-23-27.45-34.45
		c-9.38,10.73-18.36,21.82-27.8,32.4901c7.33-12.21,15.85-23.7,23.45-35.76c-13.14-5.55-26.57-10.48-39.5-16.49
		c13.84,3.63,27.54,7.78,41.36,11.52C667.15,504.89,667.97,490.27,669.49,475.72z"/>
	<path d="M1362.71,495.34c6.27-6.3,12.0801-13.09,18.64-19.08c-4.91,7.39-10.7,14.18-16.15,21.18
		c6.78,6.85,14.2101,13.06,20.64,20.24c-7.5599-5.86-15.1699-11.64-22.63-17.61c-6.8199,6.47-12.75,13.85-19.77,20.09
		c5.4501-7.61,11.4601-14.81,17.0901-22.29c-6.55-6.47-13.55-12.52-19.77-19.28C1348.3199,483.82,1355.35,489.81,1362.71,495.34z"/>
	<path d="M880.6,525.74c12.4901-13.98,24.71-28.23,37.46-41.96c-10.09,15.83-20.64,31.37-30.72,47.21
		c14,12.29,28.02,24.59,41.7599,37.16c-15.84-9.87-31.23-20.47-46.96-30.53c-12.31,13.68-24.23,27.74-36.79,41.19
		c9.6801-15.64,20.03-30.89,30.13-46.27c-13.81-12.55-28.14-24.56-41.71-37.37C849.47,505.22,864.96,515.6,880.6,525.74z"/>
	<path d="M1572.34,531.95c0.65-7.03,0.62-14.13,1.73-21.1c1.37,15.66,2.2301,31.36,3.38,47.04c0.7201,6.54,0.37,13.25,1.77,19.69
		c19.8101-9.95,39.76-19.65,59.76-29.22c-17.99,13.03-36.95,24.74-55.0499,37.61c18.5099,12.9901,37.5599,25.23,56.1699,38.1
		c-20.5599-9.61-40.7999-19.91-61.27-29.7c-1.72,22.29-2.8199,44.64-4.85,66.9c-1.89-22.29-3.1699-44.63-4.77-66.94
		c-20.24,9.72-40.2899,19.86-60.6,29.43c18.26-12.92,37.15-24.97,55.51-37.73c-18.1899-12.96-37.2-24.8101-55.39-37.77
		c20.29,9.5,40.29,19.65,60.48,29.37C1570.17,562.4,1571.3199,547.18,1572.34,531.95z"/>
	<path d="M2416.8601,576.98c6.6299-19.13,13.4199-38.21,20.0198-57.36c0.01,4.22-1.4399,8.23-2.24,12.33
		c-3.5198,15.7-7.0999,31.39-10.6299,47.09c21.3699,0.47,42.74,1.14,64.1101,1.34c-21.2302,2.5-42.5601,4.07-63.8401,6.11
		c4.3599,14.72,8.8,29.41,13.2,44.11c1.3301,5.21,3.54,10.21,4.28,15.56c-8.1301-19.06-16.3201-38.08-24.55-57.09
		c-16.76,11.56-33.4099,23.29-50.26,34.71c6.5701-6.75,14.03-12.6,21.02-18.9301c8.2-7.25,16.47-14.41,24.6699-21.67
		c-16.1299-12.53-32.73-24.49-48.5598-37.37C2381.8101,555.94,2399.21,566.69,2416.8601,576.98z"/>
	<path d="M1425.72,521.2c7.0701,12.23,13.0701,25.11,19.6901,37.61c11.1599-8.7,21.98-17.83,33.24-26.4
		c-9.4301,10.47-19.76,20.13-29.61,30.22c11.61,8.2,23.89,15.44,35.47,23.68c-12.9301-5.9-25.39-12.78-38.21-18.9
		c-4,14.55-7.88,29.13-12.02,43.64c2.24-14.92,4.5399-29.84,6.9099-44.75c-13.8899,0.52-27.7599,1.37-41.6499,1.89
		c2.62,7.72,6.49,15.05,8.4099,22.98c-4.1899-8.44-8.59-16.77-12.88-25.15c-8.86,3.35-17.5599,7.16-26.5399,10.16
		c8.1899-4.77,16.86-8.69,25.1899-13.22c-2.4199-6.14-4.78-12.29-7.1699-18.43c-0.9501-2.51-2.2101-4.96-2.39-7.67
		c4.11,8.3,8.35,16.54,12.62,24.76c8.7-3.34,17.33-6.88,26.11-10.04c-7.9,4.84-16.42,8.63-24.61,12.97
		c0.25,1.02,0.51,2.05,0.7999,3.1c13.88-1.96,27.6801-4.48,41.53-6.66C1435.6801,547.71,1430.4301,534.55,1425.72,521.2z"/>
	<path d="M775.49,588.89c10.81-19.68,21.9-39.21,32.5-59.01c-0.27,1.42-0.57,2.83-1.08,4.19c-7.62,19.6-15.06,39.26-22.7,58.86
		c20.64-0.28,41.29-0.71,61.93-1.1c1.37-0.07,2.73,0.06,4.08,0.4c-21.6899,3.6-43.4399,6.85-65.15,10.36
		c11.47,19.22,23.25,38.27,34.52,57.6c-14.46-17.08-28.2401-34.75-42.39-52.1c-10.84,19.3-21.29,38.8199-32.3,58.0099
		c2.4-8.27,6.0699-16.14,8.98-24.24c4.85-12.6,9.77-25.17,14.46-37.82c-21.94,0.22-43.89,1.12-65.82,0.94
		c21.53-4.02,43.28-7.02,64.93-10.47c-10.96-19.16-22.84-37.8-33.92-56.89c2.23,1.76,3.81,4.16,5.6,6.33
		C751.27,558.92,763.36,573.92,775.49,588.89z"/>
	<path d="M921.62,544.65c11.84,16.67,23.12,33.75,34.69,50.61c14.7-14.56,28.77-29.77,43.55-44.24
		c-12.33,16.61-25.32,32.75-37.84,49.23c18.3,9.19,36.89,17.84,54.97,27.44c-19.4-6.55-38.58-13.78-57.89-20.59
		c-2.84,20.03-6.0699,40.01-8.61,60.09c-0.87-3.7-0.44-7.5-0.34-11.24c0.53-16.51,0.98-33.01,1.5099-49.51
		c-15.5699,2.67-31.15,5.32-46.72,7.98c-5.05,0.7-10.01,2.06-15.11,2.27c20.06-5.81,40.11-11.63,60.13-17.56
		C940.56,580.94,930.67,563,921.62,544.65z"/>
	<path d="M1280.53,546.72c0.22,14.92,1.15,29.8101,1.58,44.73c14.36-3.3,28.59-7.23,43-10.26c-13.75,5.18-27.5499,10.22-41.35,15.27
		c7.09,12.25,15.12,23.95,22.04,36.3c-9.0801-10.83-17.62-22.12-26.42-33.18c-9.4301,10.68-18.1901,21.98-27.91,32.39
		c7.6801-12.0099,15.86-23.68,23.6-35.64c-13.1-5.45-26.3999-10.48-39.2999-16.33c13.76,3.46,27.36,7.63,41.0499,11.4
		C1278.16,576.52,1278.7,561.55,1280.53,546.72z"/>
	<path d="M1138.75,624.73c4.95-5.28,9.34-11.11,14.64-16.04c-9.78,15.55-20.09,30.78-30.1,46.2
		c13.97,12.42,28.09,24.71,41.8999,37.3c-15.8799-9.85-31.2899-20.5-47.0399-30.57c-12.36,13.78-24.4,27.88-37.03,41.4
		c9.9-15.63,20.1801-31.03,30.34-46.51c-13.7799-12.53-28.0599-24.52-41.64-37.26c15.7201,9.97,31.17,20.37,46.79,30.48
		C1123.99,641.4,1131.37,633.07,1138.75,624.73z"/>
	<path d="M449.94,609.77c4.76,8.25,8.69,16.97,13.27,25.33c8.96-3.47,17.83-7.18,26.9-10.35c-8.34,4.78-17.09,8.85-25.58,13.38
		c3.29,8.68,6.88,17.26,9.98,26.01c-4.92-7.9-8.57-16.52-13.08-24.66c-9.22,3.51-18.31,7.41-27.66,10.56
		c8.67-4.65,17.51-8.99,26.25-13.5C456.98,627.5,452.84,618.85,449.94,609.77z"/>
	<path d="M1712.89,611.74c3.98,8.44,7.09,17.26,10.76,25.84c8.89-2.42,17.6-5.77,26.6699-7.36c-8.5,3.58-17.11,6.89-25.6,10.5
		c2.7101,9.5,5.72,18.9301,8.2001,28.5c-4.01-9-7.51-18.24-11.27-27.35c-8.8,2.06-17.26,5.5-26.14,7.12
		c8.15-3.73,16.59-6.9,24.91-10.26C1718.14,629.67,1714.95,620.85,1712.89,611.74z"/>
	<path d="M1477.71,683.98c5.38-18.08,10.8401-36.13,16.0901-54.24c-1.9701,18.77-5.41,37.38-7.74,56.12
		c18.08,5.08,35.9299,10.99,54.1,15.77c-8.1801-0.06-16.1801-2.16-24.29-2.99c-10.5699-1.55-21.14-3.08-31.7-4.6
		c-5.38,17.82-10.41,35.75-16.0701,53.47c2.24-18.48,5.3101-36.86,7.79-55.32c-18.05-5.22-35.98-10.89-54.08-15.9
		c9.09,0.44,18.0599,2.37,27.09,3.52C1458.5,681.18,1468.11,682.55,1477.71,683.98z"/>
	<path d="M556.51,671.42c6.69-6.04,12.98-12.52,19.73-18.5c-4.96,7.2-10.74,13.81-16.03,20.78c6.92,5.41,14.35,10.18,20.98,15.95
		c-8.03-4.12-15.85-8.62-23.83-12.82c-6.62,6.11-12.92,12.57-19.68,18.52c5.05-7.18,10.82-13.8199,16.07-20.85
		c-6.92-5.26-14.07-10.21-20.89-15.6C541,662.52,548.64,667.23,556.51,671.42z"/>
	<path d="M1302.8,696.76c3.3899-8.36,6.3899-16.88,10.0699-25.11c-1.67,8.6-3.9,17.09-5.86,25.63c8.72,1.91,17.49,3.61,26.24,5.39
		c-9.1801,0.19-18.35-0.92-27.51-1.35c-3.37,8.31-6.3,16.82-10.02,24.98c1.65-8.57,3.91-17.01,5.8101-25.52
		c-8.92-1.8-17.8101-3.7-26.74-5.39C1284.14,695.24,1293.46,696.41,1302.8,696.76z"/>
	<path d="M267.06,685.03c1.67-2.78,2.92-5.83,5.01-8.33c-7.74,20.81-15.91,41.48-23.84,62.23c22.23-0.17,44.47-1.06,66.7-0.96
		c-21.86,3.9301-43.9,7.01-65.83,10.61c11.29,19.09,23.06,37.91,34.15,57.11c-7.45-8.23-14.06-17.21-21.16-25.75
		c-6.96-8.63-14.01-17.17-20.89-25.86c-10.77,19.36-21.44,38.78-32.2,58.15c0.37-2.99,1.72-5.7,2.76-8.48
		c6.89-17.89,13.81-35.76,20.62-53.68c-20.84,0.29-41.67,0.73-62.51,1.11c-1.42,0.02-2.84-0.08-4.25-0.28
		c21.97-3.67,44.01-6.87,65.98-10.53c-11.52-19.16-23.2-38.23-34.5-57.51c14.51,17.02,28.19,34.78,42.42,52.06
		C248.64,718.25,257.92,701.68,267.06,685.03z"/>
	<path d="M891.61,677.73c-0.38,10.24-0.97,20.47-1.46,30.71c9.1,1.42,18.2,2.9,27.33,4.12c-9.19,0.81-18.44-0.61-27.65-0.79
		c-1.54,9.93-3.05,19.86-4.55,29.8c-0.04-10.05,0.87-20.07,1.23-30.1c-8.78-1.31-17.52-2.8799-26.34-3.85l-0.01-0.46
		c8.89-0.22,17.77,0.65,26.65,1.01C888.49,698.04,889.8,687.84,891.61,677.73z"/>
	<path d="M506.02,727.5c1.2-14.63,1.83-29.33,3.57-43.91c0.51,14.66,1.13,29.3199,1.7,43.98c10.25-2.46,20.47-5.02,30.73-7.47
		c3.38-0.74,6.71-2.0699,10.24-1.87c-13.23,4.49-26.19,9.73-39.38,14.31c7.13,12.2,15.05,23.93,22.04,36.21
		c-9.2-10.7-17.48-22.18-26.53-33.03c-9.13,10.78-18.14,21.6801-27.52,32.2401c7.33-12.11,15.78-23.53,23.29-35.53
		c-13.12-5.46-26.43-10.52-39.38-16.35C478.61,719.52,492.26,723.77,506.02,727.5z"/>
	<path d="M385.83,690.82c11.71,16.68,22.96,33.69,34.52,50.48c14.64-14.72,28.84-29.88,43.66-44.41
		c-12.41,16.64-25.44,32.82-37.97,49.37c16.95,8.3,33.82,16.75,50.77,25.04c1.5,0.72,2.95,1.55,4.33,2.51
		c-19.41-6.69-38.66-13.85-58.02-20.68c-2.93,19.77-5.86,39.54-8.63,59.34c-0.41-1.45-0.63-2.96-0.54-4.45
		c0.6-18.53,1.14-37.06,1.7-55.58c-19.41,3.19-38.75,6.92-58.21,9.71c2.14-1.51,4.82-1.8,7.25-2.6c16.41-4.77,32.8-9.61,49.22-14.33
		c-8.71-17-17.71-33.84-26.57-50.7599C386.73,693.29,386.24,692.05,385.83,690.82z"/>
	<path d="M740.85,737.36c1.37-14.62,1.67-29.37,3.72-43.9c0.21,14.69,1.07,29.35,1.57,44.03c13.55-3.13,26.95-7.03,40.62-9.58
		c-12.82,5.1801-25.94,9.6801-38.9,14.53c6.85,12.17,14.84,23.68,21.69,35.86c-9.07-10.52-17.38-21.7-26.01-32.59
		c-9.8,10.34-18.23,21.93-28.04,32.25c7.65-12,15.79-23.7,23.61-35.6c-13.27-5.49-26.67-10.7-39.82-16.44
		C713.25,729.31,726.96,733.67,740.85,737.36z"/>
	<path d="M1230.64,696.67l1.52-2.2c-7.78,20.9-15.99,41.64-23.92,62.47c19.6-0.29,39.21-0.68,58.8201-1.05
		c2.08,0.02,4.2899-0.37,6.2899,0.47c-21.4,3.59-42.89,6.72-64.2999,10.27c11.6399,19.18,23.21,38.41,34.7,57.68
		c-14.61-17.03-28.3-34.88-42.61-52.18c-10.6,19.37-21.48,38.6-32,58.02c0.15-2.51,1.28-4.79,2.14-7.1
		c7.03-18.34,14.12-36.66,21.14-55c-21.4501,0.35-42.9,0.76-64.3501,1.16L1128,768.45c21.2-3.37,42.42-6.62,63.61-10.08
		c-11.59-19.21-23.26-38.38-34.6799-57.69c10.96,12.57,20.99,25.95,31.7,38.74c3.5599,4.5,7.27,8.88,10.71,13.47
		C1210.01,734.29,1220.12,715.36,1230.64,696.67z"/>
	<path d="M1412.33,739.99c0.67-7.03,0.62-14.15,1.75-21.12c1.8101,22.2,3.13,44.45,4.7301,66.67
		c20.0599-9.5,39.8199-19.64,59.9299-29.03c-7.02,5.5-14.74,10.06-22.04,15.19c-10.5699,7.14-21.1699,14.26-31.7699,21.36
		c-1.7101,0.5-0.1001,1.85,0.6599,2.22c18.14,12.29,36.4,24.41,54.5,36.7599c-20.5699-9.57-40.7999-19.88-61.26-29.69
		c-1.6799,22.27-2.8999,44.57-4.7799,66.82c-2.12-22.25-3.1001-44.63-4.9301-66.92c-20.09,9.92-40.1801,19.87-60.4399,29.46
		c18.3199-12.89,37.1399-25.09,55.6399-37.72c-15.9199-10.85-31.9399-21.55-47.9099-32.32c-2.4601-1.69-5.0801-3.17-7.27-5.2
		c20.16,9.41,40.02,19.5,60.0699,29.16C1410.17,770.41,1411.3199,755.21,1412.33,739.99z"/>
	<path d="M1552.91,820.09c4.15,8.23,7.0599,17.04,10.74,25.49c6.0499-1.88,12.16-3.59,18.25-5.38c2.91-0.82,5.7899-1.95,8.87-2.01
		c-8.75,3.36-17.41,6.93-26.05,10.54c2.75,9.54,5.73,19.04,8.27,28.65c-4.03-9.05-7.5699-18.32-11.3099-27.49
		c-9.1001,2.24-17.9701,5.37-27.0701,7.62c8.35-4.15,17.23-7.21,25.83-10.81C1558.1,837.78,1555.11,829.04,1552.91,820.09z"/>
	<path d="M224.45,1767.4399c-7.53-10.24-13.03-22.6599-13.25-35.49c5.42,10.5601,12.11,20.42,18.44,30.4501
		c4.35,7.25,9.98,13.91,12.83,21.95C235.24,1780.28,229.63,1773.8101,224.45,1767.4399z"/>
</g>
</svg>
