<?xml version="1.0" encoding="UTF-8" standalone="no"?>
<svg
   xmlns:dc="http://purl.org/dc/elements/1.1/"
   xmlns:cc="http://creativecommons.org/ns#"
   xmlns:rdf="http://www.w3.org/1999/02/22-rdf-syntax-ns#"
   xmlns:svg="http://www.w3.org/2000/svg"
   xmlns="http://www.w3.org/2000/svg"
   xmlns:xlink="http://www.w3.org/1999/xlink"
   id="svg8"
   version="1.1"
   viewBox="0 0 210 400">
  <g>
    <path
       id="path21"
       d="m 81.257121,284.4498 c -21.89218,-6.09378 -41.6325,-19.28351 -66.538983,-44.45879 L 2.6873148,227.83034 15.031396,213.58865 c 6.789244,-7.83293 18.836461,-19.0442 26.771593,-24.91393 36.53264,-27.02373 73.388191,-29.63364 109.919671,-7.78392 14.38524,8.60391 38.36457,29.38642 46.26166,40.09424 l 4.27946,5.80262 -6.03689,7.78929 c -14.7701,19.05754 -42.8242,40.2581 -63.15339,47.72516 -14.34563,5.26926 -37.19906,6.21649 -51.816379,2.14769 z M 77.091447,266.93356 C 66.102015,255.23608 62.01268,244.08519 61.949764,225.6449 c -0.04369,-12.80815 0.731073,-16.95504 4.760114,-25.47803 2.646772,-5.59895 6.996412,-12.28362 9.665868,-14.85483 l 4.853559,-4.67493 -6.151007,1.44662 c -7.513549,1.76705 -22.743025,10.55402 -33.391178,19.26574 -10.782147,8.82135 -24.604026,23.1801 -24.604026,25.5597 0,6.31758 34.754431,34.08991 53.517291,42.76576 14.412787,6.66441 15.067677,6.38783 6.491062,-2.74137 z m 78.421813,-8.39266 c 12.2022,-7.97371 33.79802,-28.27859 33.79802,-31.77767 0,-6.65937 -42.29366,-39.51384 -57.90777,-44.98379 -3.84048,-1.34539 -3.51014,-0.38398 3.05468,8.89043 15.94096,22.52048 14.71538,54.04708 -2.86743,73.76101 -4.01743,4.50435 -7.30441,8.63105 -7.30441,9.17043 0,1.97691 19.67791,-7.51354 31.22691,-15.06041 z m -40.39697,4.14065 c 18.57416,-9.64852 25.57001,-35.15507 15.50188,-56.51915 -10.49737,-22.2749 -32.228401,-26.54563 -47.916288,-9.41684 -26.731765,29.18702 -0.309243,82.93458 32.414408,65.93599 z m -22.294273,-12.4826 c -10.433675,-6.66798 -14.141635,-24.17754 -8.164087,-38.55207 3.397489,-8.17013 12.65184,-13.8984 20.83363,-12.89563 4.93938,0.60537 5.46036,1.38847 5.53342,8.31736 0.0779,7.3903 0.30069,7.64094 6.58551,7.40921 5.78973,-0.21347 6.62607,0.44641 7.60738,6.00241 1.55278,8.79162 -1.9991,20.44513 -8.21339,26.94761 -5.9265,6.20134 -16.85541,7.45371 -24.182463,2.77111 z"/>
  </g>
</svg>
