<?xml version="1.0" encoding="UTF-8" standalone="no"?>
<svg
   xmlns:dc="http://purl.org/dc/elements/1.1/"
   xmlns:cc="http://creativecommons.org/ns#"
   xmlns:rdf="http://www.w3.org/1999/02/22-rdf-syntax-ns#"
   xmlns:svg="http://www.w3.org/2000/svg"
   xmlns="http://www.w3.org/2000/svg"
   xmlns:xlink="http://www.w3.org/1999/xlink"
   id="svg8"
   version="1.1"
   viewBox="0 0 200 400">
  <g>
    <path
       id="path21"
       d="M 49.004244,292.05131 C 45.503212,290.62351 7.1421807,258.3929 6.4524322,256.29963 c -0.7821172,-2.37359 1.6433883,-6.02664 4.8263768,-7.269 1.706326,-0.66601 7.387095,-1.02206 16.430624,-1.02982 l 13.822589,-0.0119 0.0039,-64.19946 c 0.0038,-61.87497 0.07638,-64.29118 2.00569,-66.73274 2.925198,-3.70182 8.282421,-4.88916 13.375833,-2.96453 2.143687,0.81002 4.481205,2.37841 5.194485,3.4853 1.000646,1.55282 1.300387,16.67675 1.312252,66.21197 l 0.01538,64.19946 13.822589,0.0118 c 9.043529,0.008 14.724298,0.36382 16.430625,1.02983 3.29659,1.2867 5.475035,4.72439 4.633467,7.31184 -0.356302,1.09546 -8.017769,8.08647 -17.025485,15.53556 -9.007715,7.44911 -17.767713,14.75756 -19.466662,16.24103 -2.875265,2.51058 -7.627061,4.96597 -9.557281,4.93851 -0.458819,-0.006 -1.931457,-0.45935 -3.27253,-1.00626 z m 102.394276,0.22985 c -2.76657,-0.88729 -4.50186,-3.21331 -4.50186,-6.03438 0,-1.18077 7.52757,-12.87574 17.21304,-26.74249 9.46717,-13.5542 17.21303,-24.76922 17.21303,-24.92226 0,-0.15303 -6.59358,-0.27824 -14.65241,-0.27824 -14.16594,0 -14.73744,-0.0656 -17.21304,-1.97593 -3.38815,-2.6145 -3.45427,-6.75569 -0.14615,-9.15387 2.32965,-1.68886 3.22993,-1.75034 25.62733,-1.75034 13.14655,0 24.04033,0.34172 25.12098,0.78801 2.30786,0.95311 4.37501,5.16777 3.47421,7.08351 -0.65798,1.39934 -6.75218,10.23268 -24.2293,35.11952 -8.46189,12.04946 -10.40808,16.03483 -7.66038,15.68674 0.44629,-0.0565 6.79688,-0.0599 14.11242,-0.007 11.81386,0.0847 13.53426,0.27534 15.38741,1.70535 2.67468,2.06395 2.72076,6.46168 0.094,8.96717 -1.973,1.88187 -2.21522,1.90214 -24.77634,2.07303 -12.53112,0.0949 -23.80943,-0.15634 -25.0629,-0.55835 z m -2.23359,-109.75107 c -2.23006,-1.83177 -2.2681,-2.28949 -2.25808,-27.16905 0.0104,-24.94836 0.0452,-25.36276 2.48334,-29.33094 4.91671,-8.00195 14.65077,-12.71783 26.19486,-12.6907 7.73375,0.0182 12.59358,1.53524 18.5967,5.80521 8.63615,6.14284 9.29005,8.39268 9.86876,33.9551 0.53925,23.81934 0.19295,27.29163 -2.9649,29.72841 -3.0483,2.35226 -8.6572,2.07731 -11.34145,-0.55596 -1.92261,-1.88611 -2.16214,-3.22383 -2.16214,-12.07514 v -9.95404 h -12.51857 -12.51857 v 10.32479 c 0,9.75153 -0.13406,10.42197 -2.41447,12.07513 -3.20726,2.32507 -8.05827,2.27516 -10.96548,-0.11281 z m 38.41709,-42.03569 c 0,-9.85676 -3.74356,-14.0618 -12.51857,-14.0618 -8.77502,0 -12.51857,4.20504 -12.51857,14.0618 v 6.06342 h 12.51857 12.51857 z"/>
  </g>
</svg>
