<?xml version="1.0" encoding="UTF-8" standalone="no"?>
<svg
   xmlns:dc="http://purl.org/dc/elements/1.1/"
   xmlns:cc="http://creativecommons.org/ns#"
   xmlns:rdf="http://www.w3.org/1999/02/22-rdf-syntax-ns#"
   xmlns:svg="http://www.w3.org/2000/svg"
   xmlns="http://www.w3.org/2000/svg"
   xmlns:xlink="http://www.w3.org/1999/xlink"
   id="svg8"
   version="1.1"
   viewBox="0 0 140 430">
  <g>
    <path
       id="path21"
       d="m 12.012879,287.04618 c -1.724842,-0.3849 -3.5760501,-2.32194 -3.9686762,-4.1527 -0.584668,-2.72621 -0.9550976,-2.14289 14.1698902,-22.31334 L 36.058199,242.11786 H 24.204264 12.350329 l -1.392633,-0.69398 c -2.3818407,-1.18692 -3.5432956,-3.68954 -2.9193553,-6.29041 0.427414,-1.78166 2.2500843,-3.64079 4.0018483,-4.08189 1.61029,-0.40547 34.6878,-0.42924 36.454156,-0.0262 3.265413,0.74511 5.222576,4.07881 4.197876,7.15038 -0.16502,0.49466 -6.475333,9.14405 -14.022916,19.22086 -7.54758,10.07682 -13.722876,18.38143 -13.722876,18.45469 0,0.0733 5.195171,0.13321 11.544824,0.13321 8.368183,0 11.844477,0.0895 12.633853,0.32539 2.150867,0.64266 3.867155,3.10153 3.867155,5.54034 0,2.2098 -1.9822,4.58146 -4.365624,5.22337 -1.370185,0.36902 -34.949874,0.34384 -36.613758,-0.0274 z m 90.588751,0.0737 c -0.43656,-0.10941 -1.15093,-0.3897 -1.5875,-0.62286 -1.149555,-0.61397 -24.335372,-23.96425 -24.888042,-25.0646 -0.276881,-0.55126 -0.465677,-1.52394 -0.466489,-2.40339 -0.0027,-2.90795 2.118071,-5.24149 4.97919,-5.47875 2.650302,-0.21979 3.017502,0.0431 10.451526,7.48241 3.709709,3.71236 6.8351,6.74973 6.945312,6.74973 0.110209,0 0.202996,-12.41226 0.206192,-27.58281 0.0065,-30.91801 -0.131233,-28.7376 1.929801,-30.54721 2.77149,-2.43339 7.14911,-1.47362 8.68345,1.9038 0.45605,1.00388 0.48213,2.53579 0.48763,28.64341 0.003,15.17055 0.096,27.58281 0.20619,27.58281 0.11021,0 3.2356,-3.03737 6.94531,-6.74973 7.43403,-7.43931 7.80123,-7.7022 10.45153,-7.48241 3.83527,0.31805 6.20319,4.60878 4.42292,8.01444 -0.65761,1.258 -23.88155,24.49654 -25.06285,25.07861 -1.03722,0.51107 -2.70849,0.72608 -3.70417,0.47655 z M 79.598104,236.24279 c -1.506643,-0.41453 -3.409749,-2.40135 -3.805457,-3.97285 -0.226793,-0.90068 -0.310803,-7.79826 -0.310803,-25.5182 v -24.28388 l -6.813021,6.79303 c -4.447992,4.43494 -7.154492,6.93539 -7.79671,7.20313 -3.636404,1.51601 -7.876902,-1.2544 -7.876902,-5.14616 0,-2.20454 0.0047,-2.2101 12.653203,-14.90172 7.200997,-7.22555 12.508682,-12.34489 13.137546,-12.67135 1.431983,-0.74338 3.375001,-0.74638 4.897966,-0.008 1.618324,0.78507 24.657484,23.82684 25.254174,25.25704 0.22573,0.54103 0.40929,1.6126 0.40793,2.38125 -0.007,3.9184 -4.19129,6.62774 -7.8652,5.09268 -0.62415,-0.26079 -3.41044,-2.83322 -7.792717,-7.19459 l -6.821204,-6.78867 -0.07014,25.00867 -0.07014,25.00867 -0.79611,1.28758 c -1.280144,2.07042 -3.955754,3.10685 -6.332421,2.45294 z M 12.012879,219.31285 c -1.677744,-0.37439 -3.5485025,-2.30134 -3.9798482,-4.09939 -0.2485691,-1.03615 -0.251283,-1.60621 -0.011896,-2.49869 0.4232168,-1.57783 16.8217262,-45.29206 17.4589952,-46.54121 1.924427,-3.77219 7.568144,-4.02492 9.626986,-0.43111 0.347054,0.6058 4.513185,11.47273 9.258074,24.14873 5.974851,15.96185 8.627071,23.36824 8.627071,24.09128 0,1.33851 -1.132456,3.62209 -2.158595,4.35276 -2.909824,2.07198 -6.86231,1.18067 -8.435046,-1.90215 -0.288263,-0.56504 -1.048281,-2.42876 -1.688928,-4.14159 -0.640646,-1.71283 -1.247513,-3.3226 -1.348594,-3.57726 -0.169884,-0.428 -0.848992,-0.46302 -8.978741,-0.46302 h -8.794954 l -1.135044,3.10885 c -1.752884,4.8011 -2.497343,6.23914 -3.636401,7.02427 -0.815318,0.56199 -2.959434,1.30036 -3.511195,1.20916 -0.07276,-0.012 -0.654108,-0.13831 -1.291884,-0.28063 z m 20.72985,-28.28324 c -1.209559,-3.21448 -2.247667,-5.89297 -2.306902,-5.95221 -0.101833,-0.10183 -4.431064,11.2539 -4.431064,11.62284 0,0.0956 2.010862,0.17387 4.468584,0.17387 h 4.468582 z"/>
  </g>
</svg>
