<?xml version="1.0" encoding="UTF-8" standalone="no"?>
<!-- Created with Inkscape (http://www.inkscape.org/) -->

<svg
   xmlns:dc="http://purl.org/dc/elements/1.1/"
   xmlns:cc="http://creativecommons.org/ns#"
   xmlns:rdf="http://www.w3.org/1999/02/22-rdf-syntax-ns#"
   xmlns:svg="http://www.w3.org/2000/svg"
   xmlns="http://www.w3.org/2000/svg"
   xmlns:xlink="http://www.w3.org/1999/xlink"
   xmlns:sodipodi="http://sodipodi.sourceforge.net/DTD/sodipodi-0.dtd"
   xmlns:inkscape="http://www.inkscape.org/namespaces/inkscape"
   viewBox="0 0 210 400">
  <g>
    <path
       d="m 32.251491,273.17459 c -10.95633,-9.45938 -20.307508,-18.1609 -20.780394,-19.33671 -1.172893,-2.91635 0.932988,-7.07637 4.11264,-8.12422 3.935015,-1.29679 7.471178,0.76585 19.535593,11.39508 6.069788,5.34772 11.313743,9.72316 11.653232,9.7232 0.33949,3e-5 0.507576,-33.75007 0.373527,-75.00022 -0.263399,-81.05347 -0.309066,-80.23766 4.605869,-82.27949 2.854351,-1.18579 6.84464,-0.26038 8.877459,2.05883 0.97826,1.11608 1.223062,16.48825 1.247,78.30476 0.01638,42.30383 0.352455,76.91606 0.74683,76.91606 0.394375,0 5.767779,-4.40902 11.940899,-9.79781 12.97939,-11.33029 14.928657,-12.47275 19.120164,-11.20623 3.419398,1.03322 4.746992,2.84749 4.746992,6.48721 0,2.35166 -2.206613,4.55528 -20.37551,20.34784 -17.319249,15.05405 -20.788615,17.71058 -23.129605,17.71058 -2.334276,0 -5.790681,-2.6217 -22.674696,-17.19888 z m 118.921469,16.38143 c -4.35405,-1.52058 -5.46835,-7.48324 -1.93431,-10.35059 1.9329,-1.56828 3.36916,-1.73108 17.36192,-1.96802 12.2982,-0.20823 15.43055,-0.49429 16.16205,-1.47596 0.49904,-0.66972 0.79896,-3.77478 0.66649,-6.90013 l -0.24085,-5.68245 -12.17503,-0.40589 c -14.10175,-0.47012 -17.5125,-1.68112 -21.54873,-7.65093 -2.171,-3.21102 -2.33307,-4.20335 -2.33307,-14.28507 0,-12.80076 1.42078,-16.48252 7.76701,-20.12712 3.57922,-2.05553 4.52185,-2.19371 16.65684,-2.44182 16.06239,-0.32839 20.20059,1.05444 24.37595,8.14549 1.62385,2.75783 1.77342,5.07065 1.77342,27.42362 0,18.66673 -0.29777,25.02952 -1.2653,27.03667 -1.67249,3.46958 -7.1846,7.57947 -11.58654,8.63906 -4.24558,1.02195 -30.77983,1.05593 -33.67985,0.0431 z m 32.48357,-48.13283 c 0,-5.42088 -0.39523,-8.7039 -1.12384,-9.33545 -1.53075,-1.32683 -18.69854,-1.32683 -20.22929,0 -1.40123,1.21456 -1.52275,13.91034 -0.15436,16.12659 0.86802,1.40584 2.04435,1.57019 11.23849,1.57019 h 10.269 z m -21.98434,-60.46625 c -8.99588,-0.20329 -10.54341,-0.44872 -12.40917,-1.96801 -2.64718,-2.1556 -2.8128,-6.22614 -0.36015,-8.85154 1.5153,-1.62202 2.80181,-1.94131 8.89714,-2.20811 l 7.1257,-0.3119 V 144.9763 122.33522 h -5.01122 c -6.04102,0 -10.6235,-1.26633 -11.86628,-3.27914 -1.44247,-2.33621 -1.03898,-5.87138 0.92288,-8.08577 1.75521,-1.98115 2.08839,-2.02945 13.99957,-2.02945 17.92057,0 16.40764,-2.81858 16.74068,31.1879 l 0.26922,27.4917 7.0906,0.31036 c 6.05952,0.26523 7.3482,0.5861 8.86205,2.20657 2.44371,2.61582 2.28817,6.69913 -0.33578,8.81492 -1.8355,1.48004 -3.496,1.73381 -12.87744,1.96801 -5.92362,0.14788 -15.39513,0.16436 -21.0478,0.0366 z"
       id="path34"
       inkscape:connector-curvature="0" />
  </g>
</svg>
