<?xml version="1.0" encoding="UTF-8" standalone="no"?>
<svg
   xmlns:dc="http://purl.org/dc/elements/1.1/"
   xmlns:cc="http://creativecommons.org/ns#"
   xmlns:rdf="http://www.w3.org/1999/02/22-rdf-syntax-ns#"
   xmlns:svg="http://www.w3.org/2000/svg"
   xmlns="http://www.w3.org/2000/svg"
   id="svg129"
   version="1.1"
   viewBox="0 40 210 297">
  <defs
     id="defs123" />
  <metadata
     id="metadata126">
    <rdf:RDF>
      <cc:Work
         rdf:about="">
        <dc:format>image/svg+xml</dc:format>
        <dc:type
           rdf:resource="http://purl.org/dc/dcmitype/StillImage" />
        <dc:title></dc:title>
      </cc:Work>
    </rdf:RDF>
  </metadata>
  <g
     id="layer1">
    <path
       d="m 2.0038617,296.00266 c 0,-0.0749 7.2465964,-8.41222 16.1035453,-18.52737 l 16.103545,-18.3912 -0.04677,-0.94312 c -0.04558,-0.91872 0.163934,-1.61396 0.681103,-2.26006 0.201637,-0.25191 0.05632,-0.59315 -0.702198,-1.64886 -4.152124,-5.7793 -6.694588,-15.02902 -6.31446,-22.97265 0.320448,-6.69675 2.137758,-13.36801 5.109291,-18.7559 1.216146,-2.20508 2.768656,-4.24038 3.68435,-4.83009 0.655691,-0.42227 0.818647,-0.42569 20.363408,-0.42569 H 76.68812 l 0.114778,-2.88436 c 0.10571,-2.66149 0.159878,-2.94623 0.700527,-3.68499 0.673253,-0.92012 2.198608,-1.67721 3.365549,-1.67048 0.430453,0.002 1.192832,0.17488 1.694205,0.38312 1.911447,0.79386 2.368913,1.81749 2.382848,5.33189 l 0.0095,2.52482 h 6.608803 6.608827 v -10.68884 -10.68887 l -3.304414,-7.04411 c -1.817429,-3.87427 -3.304413,-7.30589 -3.304413,-7.62581 0,-0.81262 1.55072,-2.34511 3.027658,-2.99212 3.462859,-1.51698 8.947322,-1.74564 12.558722,-0.52359 2.3246,0.7866 4.91392,3.47208 4.92154,5.1043 0.002,0.26203 -1.53843,3.19619 -3.42141,6.52039 l -3.42368,6.04396 0.1563,10.94735 0.1563,10.94734 h 6.78713 6.78716 l 0.0695,-4.38528 0.0695,-4.38527 0.75199,-1.38037 c 1.33571,-2.45189 3.6632,-3.73799 6.79136,-3.75272 1.67053,-0.007 1.99452,0.0599 3.40673,0.71268 1.0952,0.50625 1.84997,1.04313 2.53089,1.80018 1.47092,1.63549 1.67374,2.52124 1.67374,7.30969 v 4.08843 l 5.52634,-0.0552 5.52634,-0.0552 v -13.50012 -13.50013 l -1.64883,-0.13327 c -2.00949,-0.16236 -3.43638,-0.84606 -4.3384,-2.0788 -0.54237,-0.74124 -0.62159,-1.05276 -0.62159,-2.44417 0,-1.43998 0.0665,-1.68022 0.68577,-2.47709 0.41579,-0.53507 1.13145,-1.08972 1.81797,-1.40898 l 1.13223,-0.52654 30.57073,0.0217 30.57069,0.0219 0.98714,0.4935 c 0.54293,0.27144 1.29934,0.89569 1.68091,1.38725 0.62989,0.81138 0.69379,1.04233 0.69379,2.50706 0,1.46474 -0.0639,1.6957 -0.69379,2.50709 -0.9282,1.19566 -2.27699,1.84444 -4.11134,1.97762 l -1.46185,0.10612 v 35.6286 35.62859 h 3.15514 c 3.57594,0 3.51713,-0.0236 4.39673,1.75946 0.75181,1.52389 0.84484,3.96482 0.20918,5.48879 -0.26793,0.6424 -0.69551,1.40756 -0.95019,1.70038 -0.44897,0.51623 -0.54103,0.53239 -3.03377,0.53239 h -2.57076 l -0.1567,2.42178 c -0.76118,11.76377 -8.54831,22.99962 -19.5244,28.17124 -6.19268,2.91782 -11.67854,4.14458 -18.4435,4.12438 -5.91619,-0.0178 -9.79641,-0.83214 -15.15471,-3.18113 -7.19085,-3.15236 -12.44715,-7.58631 -16.12808,-13.60482 -2.64204,-4.3199 -4.49601,-10.93879 -4.49601,-16.05141 v -2.08617 l -5.1845,9.4e-4 -5.1845,9.3e-4 1.86755,0.97797 c 5.03046,2.63424 7.89629,5.82813 9.21049,10.26482 0.39551,1.33526 0.48698,2.24462 0.49637,4.93465 0.0105,3.00353 -0.0429,3.45923 -0.59805,5.10776 -2.56085,7.60421 -8.84677,12.38756 -17.52822,13.33829 -3.47515,0.3806 -7.01189,-0.19283 -10.28695,-1.66782 -6.431191,-2.89641 -10.056935,-7.63179 -10.884745,-14.21595 -0.458682,-3.64811 0.528385,-7.64142 2.722124,-11.01274 1.502351,-2.30881 4.769468,-5.22827 7.438541,-6.64701 l 2.0357,-1.08206 H 88.643525 c -7.417928,3e-5 -13.487179,0.0353 -13.487179,0.0783 0,0.043 0.891308,0.52992 1.980649,1.08209 2.497722,1.26599 5.402202,3.7145 6.777868,5.71381 0.557592,0.81034 1.349512,2.35448 1.759849,3.43139 0.733219,1.92432 0.746201,2.02195 0.754147,5.668 0.0095,4.16546 -0.18207,5.06971 -1.704131,8.06274 -3.422318,6.72975 -10.223714,10.64881 -18.456113,10.63465 -5.151551,-0.009 -10.034413,-1.87118 -13.675644,-5.21592 -5.208988,-4.78485 -6.935908,-12.59192 -4.183145,-18.91142 1.840195,-4.22452 5.497962,-7.91007 9.825665,-9.90034 0.53268,-0.24498 0.968526,-0.4899 0.968526,-0.54426 0,-0.0545 -4.153293,-0.0989 -9.229559,-0.0989 h -9.229583 v 17.48966 17.48964 l -13.274613,0.13432 c -7.301051,0.074 -16.017856,0.19323 -19.370686,0.26503 -3.3528302,0.0717 -6.0960722,0.0693 -6.0960722,-0.005 z M 25.348372,277.91384 c 5.717066,-8.17797 10.360827,-14.89962 10.319521,-14.93701 -0.135538,-0.12251 -26.5486779,29.49287 -26.4453539,29.65144 0.055361,0.085 1.3675759,0.1546 2.9159579,0.1546 h 2.815235 z m 5.535736,14.61138 c 0.121937,-0.14173 0.334025,-0.76776 0.471139,-1.39121 0.334622,-1.52185 5.930777,-25.72811 6.099102,-26.38194 0.08447,-0.32774 0.05417,-0.44026 -0.0828,-0.30916 -0.343356,0.32845 -16.224909,27.83352 -16.224909,28.09972 0,0.35628 9.430194,0.33941 9.73747,-0.0176 z m 40.398445,-2.21335 c 0.814709,-0.24858 1.518673,-0.48504 1.564345,-0.52551 0.109051,-0.0968 -4.828503,-7.91569 -5.002889,-7.92221 -0.193762,-0.007 -2.667455,8.71931 -2.533396,8.9375 0.204023,0.33193 4.408811,-0.0123 5.97194,-0.48978 z m 42.672477,0.0123 c 0.84604,-0.24341 1.53827,-0.54245 1.53827,-0.66453 0,-0.41183 -4.85647,-7.81836 -5.01852,-7.65368 -0.17634,0.17904 -2.50188,8.27415 -2.50188,8.70849 0,0.4204 4.09245,0.15337 5.98213,-0.39028 z m -52.238663,-0.37449 c 0.0024,-0.085 0.561338,-2.08712 1.241082,-4.44912 1.028564,-3.57413 1.171046,-4.27208 0.849381,-4.16071 -0.731811,0.25337 -8.24872,4.4918 -8.24872,4.65105 0,0.37546 2.183263,2.14305 3.814757,3.08848 1.680317,0.9737 2.331855,1.21567 2.3435,0.8703 z m 43.906403,-4.26535 c 0.67237,-2.36208 1.18066,-4.33249 1.12955,-4.37869 -0.10118,-0.0917 -7.822323,4.14954 -8.30556,4.56218 -0.239936,0.20487 -0.01432,0.49228 1.181903,1.50414 1.424487,1.20518 4.134947,2.78867 4.563917,2.66631 0.1143,-0.0326 0.75785,-1.99186 1.43019,-4.35394 z m -27.725711,0.91076 c 1.211946,-1.13772 3.226837,-4.14751 2.946358,-4.40119 -0.06347,-0.0575 -2.11244,-0.53057 -4.553274,-1.05148 -2.440834,-0.52089 -4.617321,-0.99618 -4.836664,-1.05619 -0.580905,-0.15883 -0.493784,0.18622 0.355693,1.409 0.415014,0.59732 1.550696,2.26861 2.523803,3.71395 0.973084,1.44535 1.875416,2.62789 2.005155,2.62789 0.129812,0 0.83127,-0.5589 1.558929,-1.24198 z m 42.757181,-0.0527 c 1.14337,-1.10544 3.24668,-4.16073 3.00737,-4.36849 -0.13945,-0.1211 -9.85731,-2.15292 -9.93985,-2.07828 -0.15511,0.14032 5.07943,7.73127 5.33467,7.73632 0.14231,0.004 0.86131,-0.5775 1.59781,-1.28955 z m 46.729,0.66137 c 3.91477,-0.3948 8.89663,-1.76575 8.63734,-2.3769 -0.11948,-0.28158 -8.34159,-13.19833 -8.96674,-14.08652 l -0.35539,-0.50494 -0.20851,0.50494 c -0.11468,0.27773 -1.18245,3.93663 -2.37282,8.13095 -1.19039,4.19431 -2.21396,7.78334 -2.27464,7.97559 -0.0919,0.29116 0.0915,0.36227 1.09756,0.42561 0.66432,0.0418 1.44264,0.0933 1.7296,0.11423 0.28696,0.021 1.50809,-0.0614 2.71361,-0.18293 z m -9.82552,-9.87829 c 1.28182,-4.47769 2.2998,-8.17027 2.26219,-8.2057 -0.0634,-0.0598 -4.69875,2.47474 -12.63565,6.90885 -1.80961,1.01101 -3.32456,1.93134 -3.36653,2.04523 -0.11688,0.31711 3.52489,3.58295 5.18391,4.64878 2.33278,1.4987 6.01435,3.30255 6.12784,3.00243 0.0537,-0.14208 1.14642,-3.92186 2.42824,-8.39959 z m -97.954557,2.48727 c 1.535424,-0.83037 2.791659,-1.57072 2.791659,-1.64521 0,-0.13221 -9.405759,-2.28903 -9.9702,-2.28622 -0.674541,0.004 -0.223351,4.49417 0.633069,6.30117 l 0.433842,0.91536 1.659986,-0.88766 c 0.912998,-0.48821 2.916244,-1.56705 4.451644,-2.39744 z m 41.245847,0.81867 c 2.41151,-1.29912 4.30868,-2.42639 4.21598,-2.50501 -0.16847,-0.14296 -9.432367,-2.24367 -9.893913,-2.24367 -0.165844,0 -0.209273,0.77631 -0.1353,2.42179 0.08256,1.83785 0.231704,2.71012 0.61868,3.61776 0.280454,0.65781 0.577445,1.16793 0.659962,1.13361 0.08256,-0.0344 2.123106,-1.12535 4.534591,-2.42448 z m 83.3618,-0.26583 c 2.30962,-1.91237 3.98103,-3.93934 5.56417,-6.74776 0.77838,-1.38082 1.3587,-2.56169 1.28958,-2.62422 -0.18152,-0.16412 -18.40311,-4.013 -18.51589,-3.91102 -0.052,0.0471 1.87208,2.99695 4.27566,6.55541 5.52003,8.1724 5.40984,8.01578 5.63865,8.01578 0.10564,0 0.89216,-0.57969 1.74783,-1.28819 z M 68.238597,279.66797 c 2.47911,-1.06398 1.509892,-4.40355 -1.277997,-4.40355 -0.47739,0 -0.967643,0.22321 -1.549574,0.70555 -0.741189,0.61434 -0.851243,0.82535 -0.851243,1.63226 0,0.70325 0.137448,1.06041 0.569738,1.48114 0.988523,0.96197 1.851649,1.12425 3.109076,0.5846 z m 42.881513,-0.0806 c 1.50846,-0.83178 1.70411,-2.58396 0.41118,-3.68252 -1.53436,-1.30365 -4.24204,-0.29529 -4.24204,1.57979 0,1.97572 2.03524,3.09287 3.83086,2.10273 z m -29.171507,-2.06582 c 0.08256,-1.5736 -0.287398,-3.72009 -0.821772,-4.76709 l -0.386833,-0.75795 -4.141124,2.30378 c -2.277615,1.26707 -4.206959,2.36376 -4.287423,2.4371 -0.155822,0.14208 8.954664,2.24292 9.340113,2.15381 0.125278,-0.0289 0.259003,-0.64531 0.297039,-1.36965 z m 42.657597,-0.5568 c -0.003,-1.9323 -0.325,-3.59923 -0.87631,-4.53093 -0.25344,-0.42831 -0.35973,-0.38628 -3.62216,1.43216 -4.99747,2.78554 -5.12392,2.86129 -4.98549,2.98645 0.1038,0.094 8.72752,2.04144 9.31575,2.10377 0.094,0.0106 0.16971,-0.8862 0.16821,-1.99145 z m -61.527697,-2.39772 c 0,-0.079 -5.001625,-7.5582 -5.184768,-7.75315 -0.05321,-0.0568 -0.780014,0.54626 -1.61503,1.33988 -1.414561,1.34444 -2.9995,3.59761 -2.9995,4.26413 0,0.2072 1.257858,0.56096 4.386883,1.23375 4.113777,0.88453 5.412415,1.10416 5.412415,0.91539 z m 40.310317,-3.6825 c -1.39038,-2.06882 -2.62195,-3.8515 -2.7368,-3.96149 -0.52914,-0.50685 -4.23998,3.90204 -4.578731,5.44004 -0.04868,0.22079 1.035102,0.53353 4.379251,1.26374 2.44412,0.53371 4.67344,0.98134 4.95404,0.99477 0.44816,0.0215 0.20283,-0.43303 -2.01776,-3.73706 z m -28.811518,0.68583 c 2.346459,-1.23818 4.314866,-2.29514 4.374235,-2.34887 0.05942,-0.0538 -0.51588,-0.70075 -1.278355,-1.43792 -0.994941,-0.96195 -1.904551,-1.58419 -3.222183,-2.20417 -1.009737,-0.47509 -1.863151,-0.83225 -1.896439,-0.7937 -0.03341,0.0386 -0.595151,1.92513 -1.248527,4.19233 -0.653375,2.26718 -1.240533,4.28451 -1.304746,4.48288 -0.06419,0.19838 -0.02148,0.36068 0.0964,0.36068 0.117403,0 2.133081,-1.01305 4.479539,-2.25123 z m 42.725358,0.018 c 2.31121,-1.22454 4.23871,-2.32552 4.28333,-2.44657 0.16343,-0.44347 -2.77126,-2.83788 -4.45724,-3.63668 -0.91791,-0.43488 -1.71947,-0.745 -1.7812,-0.68919 -0.12027,0.10895 -2.58895,8.52394 -2.58895,8.82542 0,0.0991 0.0768,0.17875 0.17085,0.1769 0.094,-0.002 2.06193,-1.00531 4.37314,-2.22988 z m -49.587364,-2.963 c 0.583267,-2.23445 1.060467,-4.20115 1.060467,-4.37047 0,-0.46615 -1.270623,-0.59248 -3.358843,-0.33389 -2.317466,0.28698 -4.302791,0.88816 -4.200828,1.27208 0.159162,0.59912 5.134133,7.81185 5.282079,7.65794 0.08614,-0.0897 0.633857,-1.99122 1.217125,-4.22566 z m 42.191584,2.00154 c 1.44675,-5.41653 1.72031,-6.55384 1.60214,-6.66074 -0.27301,-0.24691 -3.80908,-0.0723 -5.32107,0.26291 -2.72102,0.60309 -2.71313,0.3789 -0.14962,4.2538 2.36868,3.58035 3.08033,4.57755 3.19334,4.47462 0.0382,-0.0349 0.34214,-1.08361 0.67521,-2.33059 z m 38.88489,-2.63349 c 4.48851,-2.40582 8.16468,-4.43123 8.16926,-4.50091 0.005,-0.0696 -0.73517,-0.28873 -1.64388,-0.48677 -0.90872,-0.19803 -5.1715,-1.13965 -9.47286,-2.09251 -4.30137,-0.95285 -7.91628,-1.679 -8.03314,-1.61369 -0.11686,0.0654 -0.2125,1.44792 -0.2125,3.07242 0,3.19747 0.34366,5.33473 1.23155,7.65933 0.94613,2.47709 1.02122,2.60683 1.42716,2.46594 0.2054,-0.0712 4.04588,-2.098 8.5344,-4.50381 z m 18.54855,-1.5639 c 1.19089,-0.4893 2.30559,-1.65536 2.63269,-2.75391 1.21905,-4.09455 -4.18225,-7.21239 -7.68121,-4.43389 -1.257,0.99817 -1.74063,2.0526 -1.63427,3.56317 0.11328,1.60902 0.78264,2.57844 2.35092,3.40476 1.36069,0.71697 2.92836,0.79652 4.33187,0.21987 z m 25.49739,-1.79662 c 0.27682,-0.6524 0.13525,-6.04178 -0.20076,-7.64255 -0.41859,-1.99427 -1.47736,-4.81032 -1.80835,-4.80974 -0.36761,4.8e-4 -15.74197,8.55957 -15.74197,8.76358 0,0.0968 0.56403,0.30694 1.2534,0.46698 1.74348,0.40478 16.03314,3.52118 16.21281,3.53581 0.0806,0.007 0.2088,-0.13485 0.28486,-0.31408 z m -34.9568,-7.69848 c 0,-0.31936 -9.50711,-14.31971 -9.77978,-14.40191 -0.1395,-0.0421 -0.84187,0.4037 -1.56086,0.99052 -2.48472,2.02805 -3.86582,3.68796 -5.54533,6.66489 -0.88502,1.56865 -1.56142,2.89523 -1.5031,2.94796 0.0827,0.0747 17.50648,3.86834 18.21816,3.96653 0.094,0.0123 0.17092,-0.0626 0.17092,-0.16799 z m 21.32939,-5.67031 c 4.50033,-2.37383 8.22256,-4.3424 8.27157,-4.37455 0.0491,-0.0321 -0.34612,-0.56881 -0.87815,-1.19249 -1.25556,-1.47189 -3.66398,-3.51791 -5.28337,-4.48839 -1.72027,-1.03093 -5.48509,-2.67422 -5.68033,-2.47941 -0.13675,0.13644 -4.99724,16.53853 -4.99724,16.86358 0,0.19274 -0.10311,0.24483 8.56752,-4.32874 z m -14.85999,2.20346 c 0.0656,-0.19839 0.585,-2.12292 1.15431,-4.27677 0.56932,-2.15382 1.49478,-5.63189 2.05658,-7.72905 0.56179,-2.09716 1.0235,-3.96567 1.02601,-4.15226 0.01,-0.74705 -5.90991,-0.65655 -9.42515,0.14419 -2.40144,0.54698 -4.92739,1.35358 -4.92739,1.57343 0,0.28958 9.64694,14.79736 9.8409,14.79949 0.0856,9.3e-4 0.2092,-0.16059 0.27474,-0.35896 z m 24.75068,-49.67221 c -0.003,-3.19904 -1.24556,-7.63527 -2.89626,-10.33291 -1.16366,-1.90169 -3.85848,-4.28648 -5.81123,-5.14268 -4.07643,-1.78733 -9.92643,-1.69554 -13.92426,0.21848 -1.68728,0.80781 -3.85256,2.72412 -4.91916,4.35358 -1.66742,2.54731 -2.98101,7.30155 -2.98415,10.80046 l -0.003,1.4943 h 15.26866 15.26866 v -1.39124 z M 102.81443,161.3629 c -1.47679,-0.47354 -2.56258,-1.45606 -3.046649,-2.75687 l -0.421839,-1.13361 -1.115065,-0.12763 c -0.613287,-0.0702 -1.327487,-0.23038 -1.587086,-0.35604 -1.873459,-0.9068 -2.690912,-4.21373 -1.539457,-6.22759 0.452884,-0.79207 1.46639,-1.35134 2.768989,-1.52801 0.840433,-0.11405 0.991052,-0.19916 0.855777,-0.48394 -0.640156,-1.34776 0.04749,-2.775 2.0204,-4.19337 2.28874,-1.64546 4.46203,-2.07707 6.30537,-1.25221 l 0.89735,0.40153 0.63705,-0.60672 c 2.14761,-2.04539 6.25251,-2.10277 8.63011,-0.12058 0.61025,0.50875 1.11165,1.15466 1.27192,1.63851 0.25843,0.78012 0.28952,0.79871 1.33428,0.79871 2.23722,0 3.64388,1.63108 3.64388,4.22523 0,2.78702 -1.48785,4.22522 -4.37105,4.22522 -1.08568,0 -1.28877,0.0545 -1.1777,0.3163 0.26456,0.62358 -0.40746,2.1008 -1.32309,2.90836 l -0.90082,0.79448 -2.01182,-0.005 -2.01183,-0.005 -0.27907,0.69802 c -0.3876,0.96939 -1.76367,2.29148 -2.85144,2.73953 -1.13623,0.46801 -4.33715,0.49582 -5.72821,0.0497 z m 29.95542,-24.08302 c -2.66691,-0.6643 -4.57832,-2.58521 -5.09433,-5.11967 -0.10743,-0.5276 -0.2582,-0.75114 -0.45954,-0.68128 -4.33468,1.5044 -7.59395,-0.55209 -8.90564,-5.61914 -0.49544,-1.91389 -0.33297,-4.72546 0.35505,-6.14465 1.04506,-2.15559 3.87232,-3.99734 7.26761,-4.73434 l 1.58322,-0.34366 0.14912,-1.31632 c 0.40537,-3.57854 2.76112,-6.60958 6.46484,-8.31804 1.45615,-0.67171 1.64903,-0.70643 3.92427,-0.70643 1.87623,0 2.55552,0.0804 3.14621,0.37195 l 0.75339,0.37193 0.79121,-0.62831 c 1.78839,-1.42014 3.89369,-2.05939 7.30284,-2.21742 2.2027,-0.10207 2.75428,-0.0576 4.19461,0.338 1.41389,0.3884 1.85114,0.6299 2.96557,1.63781 0.88704,0.80223 1.43822,1.51591 1.71487,2.22045 l 0.40772,1.03824 2.66294,-0.0992 c 3.073,-0.1144 4.47801,0.11406 6.44614,1.04859 2.19819,1.04373 3.47072,2.80257 3.99301,5.5189 0.67097,3.48966 -0.2488,7.46872 -2.30726,9.98157 -1.4858,1.81381 -4.38398,3.37379 -7.0033,3.76964 l -1.02551,0.15496 -0.1511,1.37656 c -0.27693,2.52312 -1.99686,4.53948 -4.93551,5.78613 -1.29494,0.54937 -1.84545,0.65757 -3.68718,0.72473 -2.39364,0.0873 -4.04537,-0.28952 -5.75555,-1.3131 l -0.88583,-0.5302 -1.02387,0.85355 c -1.27703,1.06463 -3.81721,2.17106 -5.90077,2.57023 -1.9238,0.36857 -5.52408,0.37294 -6.98723,0.009 z"
       id="path39" />
  </g>
</svg>
