<?xml version="1.0" encoding="UTF-8" standalone="no"?>
<svg
   xmlns:dc="http://purl.org/dc/elements/1.1/"
   xmlns:cc="http://creativecommons.org/ns#"
   xmlns:rdf="http://www.w3.org/1999/02/22-rdf-syntax-ns#"
   xmlns:svg="http://www.w3.org/2000/svg"
   xmlns="http://www.w3.org/2000/svg"
   id="svg83"
   version="1.1"
   viewBox="0 40 210 297">
  <defs
     id="defs77" />
  <metadata
     id="metadata80">
    <rdf:RDF>
      <cc:Work
         rdf:about="">
        <dc:format>image/svg+xml</dc:format>
        <dc:type
           rdf:resource="http://purl.org/dc/dcmitype/StillImage" />
        <dc:title></dc:title>
      </cc:Work>
    </rdf:RDF>
  </metadata>
  <g
     id="layer1">
    <path
       d="M 58.47913,294.78759 C 48.422141,293.4906 40.600419,290.5281 34.39425,285.66544 27.48547,280.25227 22.890578,272.6426 21.894584,264.96454 l -0.202398,-1.56088 -5.327584,-0.0631 -5.327585,-0.0631 -0.847517,-1.33891 c -1.520045,-2.40141 -1.3254601,-5.67173 0.454903,-7.64638 0.559177,-0.62018 0.671573,-0.64274 3.20333,-0.64274 h 2.62382 v -43.29296 c 0,-41.13755 -0.02461,-43.28499 -0.514084,-43.13327 -0.85001,0.26404 -9.8327514,0.67454 -10.9862037,0.50205 -1.5989736,-0.23912 -2.5258203,-0.93893 -3.0342449,-2.29094 -0.96741855,-2.57289 -0.4289111,-3.87454 1.9697492,-4.76103 4.240419,-1.56716 27.1555134,-5.12008 47.3753334,-7.34544 29.293948,-3.22404 56.602797,-3.98568 83.574677,-2.33085 19.04385,1.16839 42.21462,3.84722 61.39581,7.09807 9.6442,1.63453 12.55517,2.33084 13.91984,3.3297 0.69818,0.51103 0.76816,0.72241 0.76816,2.32077 0,3.12125 -1.1597,4.29889 -4.22572,4.29105 -1.70171,-0.004 -8.01486,-0.52539 -10.08855,-0.83263 l -0.96123,-0.14247 v 39.29195 c 0,21.61054 -0.0874,41.09286 -0.19317,43.29393 l -0.19225,4.00201 h 2.41174 2.41177 l 0.932,1.56602 c 0.78779,1.32362 0.93205,1.83534 0.93205,3.30603 0,1.47065 -0.14426,1.98237 -0.93205,3.30599 l -0.932,1.56601 h -4.82455 -4.82451 l -0.20425,1.682 c -0.47302,3.89623 -1.95477,7.86363 -4.35404,11.65803 -5.78101,9.14256 -15.2639,15.02329 -28.12503,17.44152 -4.20784,0.7912 -11.50238,0.99638 -15.56925,0.43793 -12.48066,-1.71383 -23.92266,-8.34039 -29.17347,-16.89566 -1.61257,-2.62737 -2.67162,-5.04884 -3.50323,-8.01023 -0.52255,-1.86075 -0.63568,-3.032 -0.64897,-6.71919 l -0.0154,-4.46557 h -2.76144 -2.76144 l 0.18641,2.49399 c 0.5071,6.78765 -2.05797,14.4118 -6.734991,20.01858 -5.586518,6.69701 -15.581556,11.86814 -26.031867,13.46801 -2.135727,0.32697 -4.032638,0.43521 -7.21945,0.41191 -2.377406,-0.0179 -4.653028,-0.0742 -5.056931,-0.1262 z m 7.553314,-8.05011 c 0.163641,-0.12918 -4.926664,-15.74741 -5.215127,-16.00167 -0.123346,-0.10874 -1.144532,1.03969 -2.269409,2.55197 -2.945073,3.95937 -8.008587,10.96475 -8.179333,11.3162 -0.251921,0.51859 4.955179,1.83907 8.704214,2.20727 2.031637,0.19956 6.675929,0.15021 6.959655,-0.0738 z m 86.942666,0.0772 c 3.45162,-0.36459 8.90751,-1.64783 8.90751,-2.0951 0,-0.16747 -8.67933,-12.12651 -9.90511,-13.64798 -0.59335,-0.73646 -0.62251,-0.68354 -2.09466,3.80576 -0.66948,2.04161 -1.8126,5.51227 -2.54027,7.71261 -0.72766,2.20033 -1.323,4.0465 -1.323,4.10261 0,0.35247 4.094,0.42436 6.95553,0.12204 z m -76.327207,-2.46213 c 1.559293,-0.72205 3.570506,-1.7572 4.469423,-2.30029 1.857108,-1.12202 5.047242,-3.7588 4.915684,-4.06303 -0.09751,-0.22594 -17.197971,-8.56389 -17.563641,-8.56389 -0.127959,0 0.615068,2.58392 1.651111,5.74202 1.036074,3.15811 2.227822,6.81214 2.648336,8.12004 0.420514,1.3079 0.827463,2.37799 0.9043,2.37799 0.0769,0 1.415524,-0.59081 2.974787,-1.31284 z m 62.291477,0.44285 c 0.15749,-0.47851 1.29017,-3.94981 2.51702,-7.71402 1.22678,-3.76422 2.30161,-7.02673 2.38851,-7.25002 0.0867,-0.22331 0.0446,-0.40602 -0.0938,-0.40602 -0.21193,0 -17.33578,8.2181 -17.67561,8.48294 -0.2267,0.17679 2.63579,2.6236 4.36356,3.72986 1.62462,1.04021 7.52452,4.00307 8.00483,4.01991 0.11504,0.004 0.33789,-0.38415 0.49545,-0.86265 z M 48.928874,274.4066 c 2.959161,-3.8243 5.286336,-6.98139 5.171511,-7.01578 -0.275298,-0.0823 -20.015915,3.59117 -20.237261,3.76596 -0.237771,0.18791 0.871634,2.19638 2.360642,4.27362 1.325183,1.84863 6.354492,6.18495 6.981864,6.01978 0.188556,-0.0496 2.764114,-3.21928 5.723244,-7.04358 z m 122.415346,5.51679 c 2.5427,-1.93249 4.16663,-3.71104 5.92693,-6.4914 0.74568,-1.17776 1.35576,-2.18695 1.35576,-2.24267 0,-0.0557 -1.22279,-0.32605 -2.71727,-0.60073 -1.49451,-0.27468 -6.077,-1.1215 -10.18334,-1.88189 -4.10631,-0.76033 -7.55778,-1.35342 -7.66987,-1.3179 -0.28206,0.0893 10.59196,14.10057 10.94351,14.10057 0.15595,0 1.21101,-0.70471 2.34428,-1.56598 z m -80.17575,-8.70004 c 1.286488,-2.54844 1.80454,-4.89177 1.816475,-8.21671 0.0062,-1.68005 -0.06583,-3.11528 -0.159643,-3.18937 -0.09382,-0.074 -4.695814,0.75241 -10.226657,1.83667 -5.530875,1.08427 -10.257079,1.97139 -10.502725,1.97139 -0.245461,0 -0.39526,0.12164 -0.332511,0.2703 0.11012,0.26049 18.02002,8.77774 18.457882,8.77774 0.118425,0 0.544537,-0.6525 0.947148,-1.45002 z m 40.38363,-2.95759 c 5.03331,-2.36039 9.05869,-4.35654 8.9453,-4.43589 -0.1135,-0.0794 -4.70067,-1.00127 -10.19398,-2.04863 -5.49332,-1.04741 -10.20329,-1.95139 -10.46662,-2.0089 -1.04512,-0.22831 -0.9422,5.65539 0.15687,8.96039 0.71163,2.14008 1.67631,3.97078 2.05271,3.89548 0.19502,-0.0389 4.47253,-2.00208 9.50584,-4.36245 z m -66.892639,-1.62902 c 3.795328,-1.52917 3.700158,-5.9443 -0.15995,-7.42011 -2.261349,-0.8645 -4.566162,-0.49213 -6.232899,1.00709 -2.35006,2.11383 -1.651419,5.17645 1.458156,6.39209 1.577504,0.61667 3.43658,0.62456 4.934724,0.0208 z m 87.834199,0 c 3.66069,-1.47492 3.75061,-5.64253 0.15749,-7.30546 -4.56102,-2.11099 -9.83536,1.96019 -7.24861,5.59511 1.42648,2.00442 4.51326,2.74897 7.09106,1.71035 z M 41.945196,263.43527 c 5.2051,-0.9927 9.527247,-1.855 9.604699,-1.9162 0.07751,-0.0611 -2.132282,-1.21545 -4.910546,-2.56508 -2.778264,-1.34962 -6.801798,-3.30292 -8.941155,-4.34071 l -3.88976,-1.88681 -0.450689,0.85186 c -0.247922,0.46851 -0.726141,1.69404 -1.062804,2.72344 -1.008636,3.08361 -1.115495,8.95537 -0.162718,8.94303 0.19194,-0.002 4.607903,-0.8168 9.813003,-1.80953 z m 138.559714,1.44706 c 0.34598,-0.71199 0.16271,-5.80157 -0.26669,-7.40207 -0.61984,-2.31107 -1.60094,-4.5275 -2.00248,-4.52387 -0.55041,0.006 -17.32138,8.21663 -17.29563,8.46855 0.0215,0.20277 17.69557,3.76184 18.9038,3.8065 0.26546,0.01 0.5629,-0.14723 0.66096,-0.34911 z m -99.734336,-9.05712 c 5.269818,-0.97247 9.713681,-1.8657 9.875261,-1.98497 0.475573,-0.35116 -2.858301,-5.19513 -4.77905,-6.94383 -1.776025,-1.61691 -4.412642,-3.58639 -4.593385,-3.43108 -0.24177,0.20761 -10.750123,13.90401 -10.750123,14.01138 0,0.22267 0.717282,0.10715 10.247297,-1.6515 z m 57.411006,-3.04594 c -2.04249,-2.64771 -4.49443,-5.83177 -5.44878,-7.0757 -1.44618,-1.88506 -1.81736,-2.22576 -2.22914,-2.04611 -0.97384,0.42503 -5.01129,3.86897 -6.02601,5.14026 -1.30285,1.63227 -3.20813,4.86876 -2.97722,5.05738 0.22485,0.18374 18.87501,3.7 19.73967,3.72171 0.57422,0.0139 0.19655,-0.57781 -3.05852,-4.79754 z m -82.193328,2.32002 c -0.221469,-0.60609 -1.417769,-4.1818 -2.658209,-7.94604 -1.240441,-3.76418 -2.341448,-6.96792 -2.446707,-7.11936 -0.257765,-0.37078 -4.497969,1.2075 -6.937047,2.58204 -1.735331,0.97798 -5.463911,3.93345 -6.045943,4.79234 -0.228236,0.33682 1.061266,1.01042 8.760196,4.57609 4.96536,2.2996 9.18597,4.18915 9.379232,4.19903 0.26484,0.0139 0.252229,-0.25359 -0.05168,-1.0841 z M 165.4135,251.97797 c 5.00541,-2.32287 9.10077,-4.28911 9.10077,-4.36945 0,-0.0804 -1.007,-1.00215 -2.23779,-2.04845 -2.64,-2.24429 -4.93454,-3.58938 -8.34457,-4.89175 -2.258,-0.86234 -2.5093,-0.91248 -2.70291,-0.53892 -0.28975,0.5593 -5.22161,15.49943 -5.22161,15.81828 0,0.13949 0.0686,0.25362 0.15257,0.25362 0.084,0 4.24798,-1.90052 9.25342,-4.22333 z m -96.258777,-4.56256 c 3.014651,-3.93901 5.481198,-7.22305 5.481198,-7.29792 0,-0.22184 -4.40606,-1.25431 -7.030956,-1.64757 -1.338841,-0.20057 -3.955278,-0.36469 -5.814293,-0.36469 -3.347808,0 -3.378783,0.006 -3.250331,0.52202 0.541891,2.18092 4.822513,15.94559 4.959485,15.94752 0.09566,0.002 2.640246,-3.22031 5.654897,-7.15936 z m 82.098587,-0.8036 c 1.3222,-4.38105 2.40402,-8.08726 2.40402,-8.23602 0,-0.47501 -6.38744,-0.33875 -9.78981,0.20884 -3.0452,0.49011 -6.13287,1.33731 -6.15456,1.68868 -0.0185,0.30979 10.65194,14.30396 10.90731,14.30396 0.12611,0 1.31084,-3.58444 2.63304,-7.96546 z"
       id="path39" />
  </g>
</svg>
